STARTFONT 2.1
FONT -Adobe-Utopia-Regular-R-Normal--17-120-100-100-P-91-ISO10646-1
SIZE 12 100 100
FONTBOUNDINGBOX 22 27 -3 -7
COMMENT $Xorg: $
COMMENT ISO10646-1 extension by Markus Kuhn <mkuhn@acm.org>, 2001-03-20
STARTPROPERTIES 28
FOUNDRY "Adobe"
FAMILY_NAME "Utopia"
WEIGHT_NAME "Regular"
SLANT "R"
SETWIDTH_NAME "Normal"
ADD_STYLE_NAME ""
PIXEL_SIZE 17
POINT_SIZE 120
RESOLUTION_X 100
RESOLUTION_Y 100
SPACING "P"
AVERAGE_WIDTH 91
CHARSET_REGISTRY "ISO10646"
CHARSET_ENCODING "1"
CAP_HEIGHT 12
X_HEIGHT 8
RELATIVE_SETWIDTH 50
RELATIVE_WEIGHT 50
WEIGHT 136
FACE_NAME "Utopia Regular"
COPYRIGHT "Copyright (c) 1989, 1991 Adobe Systems Incorporated.  All Rights Reserved."
NOTICE "Utopia is a registered trademark of Adobe Systems Incorporated."
DESTINATION 0
FONT_ASCENT 15
FONT_DESCENT 4
DEFAULT_CHAR 0
_ADOBE_PSFONT "Utopia-Regular"
_DEC_DEVICE_FONTNAMES "PS=Utopia-Regular"
ENDPROPERTIES
CHARS 756
STARTCHAR char0
ENCODING 0
SWIDTH 798 0
DWIDTH 13 0
BBX 11 11 1 0
BITMAP
AAA0
0000
8020
0000
8020
0000
8020
0000
8020
0000
AAA0
ENDCHAR
STARTCHAR space
ENCODING 32
SWIDTH 225 0
DWIDTH 4 0
BBX 0 0 0 0
BITMAP
ENDCHAR
STARTCHAR exclam
ENCODING 33
SWIDTH 242 0
DWIDTH 4 0
BBX 2 12 1 0
BITMAP
C0
C0
C0
C0
C0
80
80
80
00
00
C0
C0
ENDCHAR
STARTCHAR quotedbl
ENCODING 34
SWIDTH 458 0
DWIDTH 8 0
BBX 4 5 2 7
BITMAP
90
90
90
90
90
ENDCHAR
STARTCHAR numbersign
ENCODING 35
SWIDTH 530 0
DWIDTH 9 0
BBX 8 11 0 0
BITMAP
12
12
12
7F
24
24
FE
28
48
48
48
ENDCHAR
STARTCHAR dollar
ENCODING 36
SWIDTH 530 0
DWIDTH 9 0
BBX 7 14 1 -2
BITMAP
10
38
54
D4
D0
70
38
1C
16
D6
D4
78
10
10
ENDCHAR
STARTCHAR percent
ENCODING 37
SWIDTH 838 0
DWIDTH 14 0
BBX 12 12 1 0
BITMAP
0040
7F80
8880
8900
8900
8A00
74E0
0510
0910
0910
1110
20E0
ENDCHAR
STARTCHAR ampersand
ENCODING 38
SWIDTH 706 0
DWIDTH 12 0
BBX 10 11 1 0
BITMAP
1800
2600
6600
6400
38C0
38C0
CC80
C680
C300
6380
3C40
ENDCHAR
STARTCHAR quotesingle
ENCODING 39
SWIDTH 278 0
DWIDTH 5 0
BBX 2 5 1 7
BITMAP
C0
C0
C0
40
40
ENDCHAR
STARTCHAR parenleft
ENCODING 40
SWIDTH 350 0
DWIDTH 6 0
BBX 3 14 2 -2
BITMAP
20
40
40
80
80
80
80
80
80
80
80
40
40
20
ENDCHAR
STARTCHAR parenright
ENCODING 41
SWIDTH 350 0
DWIDTH 6 0
BBX 3 14 1 -2
BITMAP
80
40
40
20
20
20
20
20
20
20
20
40
C0
80
ENDCHAR
STARTCHAR asterisk
ENCODING 42
SWIDTH 412 0
DWIDTH 7 0
BBX 5 6 1 6
BITMAP
20
A8
70
70
A8
20
ENDCHAR
STARTCHAR plus
ENCODING 43
SWIDTH 570 0
DWIDTH 9 0
BBX 7 8 1 0
BITMAP
10
10
10
FE
10
10
10
10
ENDCHAR
STARTCHAR comma
ENCODING 44
SWIDTH 265 0
DWIDTH 4 0
BBX 3 5 1 -3
BITMAP
40
60
60
40
80
ENDCHAR
STARTCHAR hyphen
ENCODING 45
SWIDTH 392 0
DWIDTH 7 0
BBX 4 1 1 4
BITMAP
F0
ENDCHAR
STARTCHAR period
ENCODING 46
SWIDTH 265 0
DWIDTH 4 0
BBX 2 2 1 0
BITMAP
C0
C0
ENDCHAR
STARTCHAR slash
ENCODING 47
SWIDTH 460 0
DWIDTH 8 0
BBX 5 12 1 0
BITMAP
08
10
10
10
30
20
20
60
40
40
40
80
ENDCHAR
STARTCHAR zero
ENCODING 48
SWIDTH 530 0
DWIDTH 9 0
BBX 7 11 1 0
BITMAP
38
6C
44
C6
C6
C6
C6
C6
44
6C
38
ENDCHAR
STARTCHAR one
ENCODING 49
SWIDTH 530 0
DWIDTH 9 0
BBX 6 11 2 0
BITMAP
30
F0
30
30
30
30
30
30
30
30
FC
ENDCHAR
STARTCHAR two
ENCODING 50
SWIDTH 530 0
DWIDTH 9 0
BBX 7 11 1 0
BITMAP
38
44
C6
06
06
0C
18
10
60
42
FE
ENDCHAR
STARTCHAR three
ENCODING 51
SWIDTH 530 0
DWIDTH 9 0
BBX 8 11 0 0
BITMAP
3C
63
43
06
38
06
03
03
C3
66
3C
ENDCHAR
STARTCHAR four
ENCODING 52
SWIDTH 530 0
DWIDTH 9 0
BBX 9 11 0 0
BITMAP
0600
0600
0E00
1600
2600
2600
4600
FF80
0600
0600
0F00
ENDCHAR
STARTCHAR five
ENCODING 53
SWIDTH 530 0
DWIDTH 9 0
BBX 8 11 0 0
BITMAP
7E
40
40
40
7C
46
03
03
83
C6
3C
ENDCHAR
STARTCHAR six
ENCODING 54
SWIDTH 530 0
DWIDTH 9 0
BBX 7 11 1 0
BITMAP
1C
24
46
40
D8
E4
C6
C6
46
64
38
ENDCHAR
STARTCHAR seven
ENCODING 55
SWIDTH 530 0
DWIDTH 9 0
BBX 8 11 1 0
BITMAP
FF
82
02
04
08
08
10
10
30
30
30
ENDCHAR
STARTCHAR eight
ENCODING 56
SWIDTH 530 0
DWIDTH 9 0
BBX 7 11 1 0
BITMAP
38
44
C6
C6
44
38
44
C6
C6
44
38
ENDCHAR
STARTCHAR nine
ENCODING 57
SWIDTH 530 0
DWIDTH 9 0
BBX 8 11 0 0
BITMAP
3C
46
C2
C3
C7
3B
03
03
42
46
38
ENDCHAR
STARTCHAR colon
ENCODING 58
SWIDTH 265 0
DWIDTH 4 0
BBX 2 8 1 0
BITMAP
C0
C0
00
00
00
00
C0
C0
ENDCHAR
STARTCHAR semicolon
ENCODING 59
SWIDTH 265 0
DWIDTH 4 0
BBX 3 10 1 -2
BITMAP
40
C0
00
00
00
00
60
60
40
80
ENDCHAR
STARTCHAR less
ENCODING 60
SWIDTH 570 0
DWIDTH 9 0
BBX 8 9 1 -1
BITMAP
01
07
1C
70
C0
E0
38
06
01
ENDCHAR
STARTCHAR equal
ENCODING 61
SWIDTH 570 0
DWIDTH 9 0
BBX 8 4 1 2
BITMAP
FF
00
00
FF
ENDCHAR
STARTCHAR greater
ENCODING 62
SWIDTH 570 0
DWIDTH 9 0
BBX 8 9 1 -1
BITMAP
80
E0
38
0E
03
07
1C
60
80
ENDCHAR
STARTCHAR question
ENCODING 63
SWIDTH 389 0
DWIDTH 6 0
BBX 6 12 0 0
BITMAP
38
4C
CC
08
18
30
60
60
38
00
10
10
ENDCHAR
STARTCHAR at
ENCODING 64
SWIDTH 793 0
DWIDTH 13 0
BBX 13 12 0 0
BITMAP
07C0
1820
3010
63C8
44C8
CCC8
D988
DA90
4CE0
6000
3040
0F80
ENDCHAR
STARTCHAR A
ENCODING 65
SWIDTH 635 0
DWIDTH 11 0
BBX 11 12 0 0
BITMAP
0400
0E00
0E00
0A00
1300
1100
1F00
2180
2180
2080
40C0
F1E0
ENDCHAR
STARTCHAR B
ENCODING 66
SWIDTH 646 0
DWIDTH 11 0
BBX 9 12 1 0
BITMAP
FE00
6300
6180
6180
6300
7C00
6300
6180
6180
6180
6300
FE00
ENDCHAR
STARTCHAR C
ENCODING 67
SWIDTH 684 0
DWIDTH 11 0
BBX 10 12 1 0
BITMAP
0F80
30C0
6040
4000
C000
C000
C000
C000
C040
6040
30C0
0F00
ENDCHAR
STARTCHAR D
ENCODING 68
SWIDTH 779 0
DWIDTH 13 0
BBX 12 12 0 0
BITMAP
7F00
30C0
3060
3030
3030
3030
3030
3030
3020
3060
30C0
FF00
ENDCHAR
STARTCHAR E
ENCODING 69
SWIDTH 606 0
DWIDTH 10 0
BBX 9 12 1 0
BITMAP
FF00
6300
6100
6000
6200
6200
7E00
6200
6000
6080
6100
FF00
ENDCHAR
STARTCHAR F
ENCODING 70
SWIDTH 580 0
DWIDTH 10 0
BBX 8 12 1 0
BITMAP
FF
61
61
60
60
62
7E
62
60
60
60
F0
ENDCHAR
STARTCHAR G
ENCODING 71
SWIDTH 734 0
DWIDTH 12 0
BBX 11 12 1 0
BITMAP
0F80
30C0
6040
4000
C000
C000
C3E0
C0C0
40C0
60C0
30C0
0F00
ENDCHAR
STARTCHAR H
ENCODING 72
SWIDTH 798 0
DWIDTH 13 0
BBX 11 12 1 0
BITMAP
F1E0
60C0
60C0
60C0
60C0
60C0
7FC0
60C0
60C0
60C0
60C0
F1E0
ENDCHAR
STARTCHAR I
ENCODING 73
SWIDTH 349 0
DWIDTH 6 0
BBX 4 12 1 0
BITMAP
F0
60
60
60
60
60
60
60
60
60
60
F0
ENDCHAR
STARTCHAR J
ENCODING 74
SWIDTH 350 0
DWIDTH 6 0
BBX 5 14 0 -2
BITMAP
78
30
30
30
30
30
30
30
30
30
30
30
20
C0
ENDCHAR
STARTCHAR K
ENCODING 75
SWIDTH 658 0
DWIDTH 11 0
BBX 10 12 1 0
BITMAP
F3C0
6100
6200
6400
6800
7800
7800
6C00
6600
6300
6180
F0C0
ENDCHAR
STARTCHAR L
ENCODING 76
SWIDTH 568 0
DWIDTH 9 0
BBX 9 12 1 0
BITMAP
F000
6000
6000
6000
6000
6000
6000
6000
6000
6080
6100
FF00
ENDCHAR
STARTCHAR M
ENCODING 77
SWIDTH 944 0
DWIDTH 16 0
BBX 14 12 1 0
BITMAP
E01C
7038
7038
5858
5858
4858
4C98
4C98
4718
4718
4218
F23C
ENDCHAR
STARTCHAR N
ENCODING 78
SWIDTH 780 0
DWIDTH 13 0
BBX 11 12 1 0
BITMAP
E1E0
7040
7040
5840
4C40
4C40
4640
4340
4340
41C0
40C0
F0C0
ENDCHAR
STARTCHAR O
ENCODING 79
SWIDTH 762 0
DWIDTH 13 0
BBX 11 12 1 0
BITMAP
0E00
3180
60C0
4040
C060
C060
C060
C060
4040
60C0
3180
0E00
ENDCHAR
STARTCHAR P
ENCODING 80
SWIDTH 600 0
DWIDTH 10 0
BBX 9 12 1 0
BITMAP
FE00
6300
6180
6180
6180
6300
7C00
6000
6000
6000
6000
F800
ENDCHAR
STARTCHAR Q
ENCODING 81
SWIDTH 762 0
DWIDTH 13 0
BBX 11 15 1 -3
BITMAP
0E00
3180
60C0
4040
C060
C060
C060
C060
4040
60C0
3180
0F00
0600
0300
01C0
ENDCHAR
STARTCHAR R
ENCODING 82
SWIDTH 644 0
DWIDTH 11 0
BBX 9 12 1 0
BITMAP
FC00
6600
6300
6300
6300
6600
7800
6600
6200
6300
6300
F180
ENDCHAR
STARTCHAR S
ENCODING 83
SWIDTH 541 0
DWIDTH 9 0
BBX 8 12 1 0
BITMAP
3C
46
C2
C0
E0
78
1E
03
83
83
C6
3C
ENDCHAR
STARTCHAR T
ENCODING 84
SWIDTH 621 0
DWIDTH 10 0
BBX 10 12 0 0
BITMAP
FFC0
8C40
8C40
0C00
0C00
0C00
0C00
0C00
0C00
0C00
0C00
3F00
ENDCHAR
STARTCHAR U
ENCODING 85
SWIDTH 791 0
DWIDTH 13 0
BBX 11 12 1 0
BITMAP
F1E0
60C0
60C0
60C0
60C0
60C0
60C0
60C0
60C0
2080
3180
0E00
ENDCHAR
STARTCHAR V
ENCODING 86
SWIDTH 634 0
DWIDTH 11 0
BBX 12 12 -1 0
BITMAP
F0F0
6060
3040
3040
1080
1880
1880
0D00
0D00
0E00
0600
0600
ENDCHAR
STARTCHAR W
ENCODING 87
SWIDTH 940 0
DWIDTH 16 0
BBX 16 12 0 0
BITMAP
F00F
6082
2186
21C4
3144
3244
124C
1228
1A28
1C28
0C38
0C10
ENDCHAR
STARTCHAR X
ENCODING 88
SWIDTH 624 0
DWIDTH 10 0
BBX 11 12 0 0
BITMAP
F1E0
6080
3100
1B00
1A00
0C00
0E00
1B00
1100
3180
60C0
F1E0
ENDCHAR
STARTCHAR Y
ENCODING 89
SWIDTH 588 0
DWIDTH 10 0
BBX 10 12 0 0
BITMAP
F1C0
6080
2100
3100
1A00
1A00
0C00
0C00
0C00
0C00
0C00
1F00
ENDCHAR
STARTCHAR Z
ENCODING 90
SWIDTH 610 0
DWIDTH 10 0
BBX 10 12 0 0
BITMAP
7FC0
41C0
4180
0300
0600
0E00
0C00
1800
3000
3040
6040
FFC0
ENDCHAR
STARTCHAR bracketleft
ENCODING 91
SWIDTH 330 0
DWIDTH 5 0
BBX 3 14 2 -2
BITMAP
E0
80
80
80
80
80
80
80
80
80
80
80
80
E0
ENDCHAR
STARTCHAR backslash
ENCODING 92
SWIDTH 460 0
DWIDTH 8 0
BBX 5 12 1 0
BITMAP
80
40
40
40
60
20
20
30
10
10
10
08
ENDCHAR
STARTCHAR bracketright
ENCODING 93
SWIDTH 330 0
DWIDTH 5 0
BBX 3 14 0 -2
BITMAP
E0
20
20
20
20
20
20
20
20
20
20
20
20
E0
ENDCHAR
STARTCHAR asciicircum
ENCODING 94
SWIDTH 570 0
DWIDTH 9 0
BBX 8 7 1 4
BITMAP
18
18
24
24
42
42
C3
ENDCHAR
STARTCHAR underscore
ENCODING 95
SWIDTH 500 0
DWIDTH 8 0
BBX 8 1 0 -2
BITMAP
FF
ENDCHAR
STARTCHAR grave
ENCODING 96
SWIDTH 400 0
DWIDTH 7 0
BBX 4 3 1 9
BITMAP
C0
60
10
ENDCHAR
STARTCHAR a
ENCODING 97
SWIDTH 523 0
DWIDTH 9 0
BBX 7 8 1 0
BITMAP
38
CC
8C
3C
CC
CC
CC
7E
ENDCHAR
STARTCHAR b
ENCODING 98
SWIDTH 598 0
DWIDTH 10 0
BBX 9 12 0 0
BITMAP
6000
E000
6000
6000
6E00
7300
6180
6180
6180
6180
6300
5E00
ENDCHAR
STARTCHAR c
ENCODING 99
SWIDTH 496 0
DWIDTH 8 0
BBX 7 8 1 0
BITMAP
3C
66
C2
C0
C0
C0
62
3C
ENDCHAR
STARTCHAR d
ENCODING 100
SWIDTH 598 0
DWIDTH 10 0
BBX 9 12 1 0
BITMAP
0300
0700
0300
0300
1F00
6300
4300
C300
C300
C300
6700
3B80
ENDCHAR
STARTCHAR e
ENCODING 101
SWIDTH 514 0
DWIDTH 9 0
BBX 7 8 1 0
BITMAP
38
44
C6
FE
C0
C2
64
38
ENDCHAR
STARTCHAR f
ENCODING 102
SWIDTH 319 0
DWIDTH 5 0
BBX 6 12 1 0
BITMAP
18
2C
60
60
F8
60
60
60
60
60
60
F0
ENDCHAR
STARTCHAR g
ENCODING 103
SWIDTH 520 0
DWIDTH 9 0
BBX 9 12 0 -4
BITMAP
1D80
2200
6300
6300
3C00
2000
6000
3F00
4180
C180
4300
3C00
ENDCHAR
STARTCHAR h
ENCODING 104
SWIDTH 607 0
DWIDTH 10 0
BBX 10 12 0 0
BITMAP
6000
E000
6000
6000
6F00
7180
6180
6180
6180
6180
6180
F3C0
ENDCHAR
STARTCHAR i
ENCODING 105
SWIDTH 291 0
DWIDTH 5 0
BBX 4 12 1 0
BITMAP
60
60
00
00
60
E0
60
60
60
60
60
F0
ENDCHAR
STARTCHAR j
ENCODING 106
SWIDTH 280 0
DWIDTH 5 0
BBX 4 16 0 -4
BITMAP
30
30
00
00
30
70
30
30
30
30
30
30
30
20
60
80
ENDCHAR
STARTCHAR k
ENCODING 107
SWIDTH 524 0
DWIDTH 9 0
BBX 9 12 0 0
BITMAP
6000
E000
6000
6000
6300
6400
6800
7800
7800
6C00
6700
F180
ENDCHAR
STARTCHAR l
ENCODING 108
SWIDTH 279 0
DWIDTH 5 0
BBX 4 12 0 0
BITMAP
60
E0
60
60
60
60
60
60
60
60
60
F0
ENDCHAR
STARTCHAR m
ENCODING 109
SWIDTH 923 0
DWIDTH 15 0
BBX 14 8 1 0
BITMAP
6E70
F398
6318
6318
6318
6318
6318
F7BC
ENDCHAR
STARTCHAR n
ENCODING 110
SWIDTH 619 0
DWIDTH 10 0
BBX 9 8 1 0
BITMAP
6E00
F300
6300
6300
6300
6300
6300
F780
ENDCHAR
STARTCHAR o
ENCODING 111
SWIDTH 577 0
DWIDTH 10 0
BBX 8 8 1 0
BITMAP
3C
66
C3
C3
C3
C3
66
3C
ENDCHAR
STARTCHAR p
ENCODING 112
SWIDTH 608 0
DWIDTH 10 0
BBX 9 12 0 -4
BITMAP
6E00
F300
6180
6180
6180
6180
6300
7E00
6000
6000
6000
F000
ENDCHAR
STARTCHAR q
ENCODING 113
SWIDTH 591 0
DWIDTH 10 0
BBX 9 12 1 -4
BITMAP
1D00
6300
4300
C300
C300
C300
6700
3B00
0300
0300
0300
0780
ENDCHAR
STARTCHAR r
ENCODING 114
SWIDTH 389 0
DWIDTH 6 0
BBX 6 8 1 0
BITMAP
6C
FC
60
60
60
60
60
F0
ENDCHAR
STARTCHAR s
ENCODING 115
SWIDTH 436 0
DWIDTH 7 0
BBX 6 8 1 0
BITMAP
30
C8
C0
70
18
8C
C8
70
ENDCHAR
STARTCHAR t
ENCODING 116
SWIDTH 344 0
DWIDTH 6 0
BBX 5 10 0 0
BITMAP
20
20
F8
60
60
60
60
60
60
38
ENDCHAR
STARTCHAR u
ENCODING 117
SWIDTH 606 0
DWIDTH 10 0
BBX 10 8 0 0
BITMAP
6180
E380
6180
6180
6180
6180
6380
3DC0
ENDCHAR
STARTCHAR v
ENCODING 118
SWIDTH 504 0
DWIDTH 8 0
BBX 9 8 0 0
BITMAP
F380
6100
2200
3200
1400
1C00
1C00
0800
ENDCHAR
STARTCHAR w
ENCODING 119
SWIDTH 768 0
DWIDTH 13 0
BBX 13 8 0 0
BITMAP
F338
6310
6390
35A0
35A0
34E0
18C0
18C0
ENDCHAR
STARTCHAR x
ENCODING 120
SWIDTH 486 0
DWIDTH 8 0
BBX 8 8 0 0
BITMAP
E7
42
24
38
18
2C
46
EF
ENDCHAR
STARTCHAR y
ENCODING 121
SWIDTH 506 0
DWIDTH 8 0
BBX 9 12 0 -4
BITMAP
F380
6100
2100
3200
3200
1A00
1C00
0C00
0800
0800
5000
7000
ENDCHAR
STARTCHAR z
ENCODING 122
SWIDTH 480 0
DWIDTH 8 0
BBX 8 8 0 0
BITMAP
7F
47
46
0C
18
31
61
FF
ENDCHAR
STARTCHAR braceleft
ENCODING 123
SWIDTH 340 0
DWIDTH 6 0
BBX 4 14 1 -2
BITMAP
10
20
20
20
20
20
E0
40
20
20
20
20
20
10
ENDCHAR
STARTCHAR bar
ENCODING 124
SWIDTH 228 0
DWIDTH 4 0
BBX 1 12 1 0
BITMAP
80
80
80
80
80
80
80
80
80
80
80
80
ENDCHAR
STARTCHAR braceright
ENCODING 125
SWIDTH 340 0
DWIDTH 6 0
BBX 3 14 1 -2
BITMAP
80
40
40
40
40
40
20
40
40
40
40
40
40
80
ENDCHAR
STARTCHAR asciitilde
ENCODING 126
SWIDTH 570 0
DWIDTH 9 0
BBX 7 2 1 3
BITMAP
72
8C
ENDCHAR
STARTCHAR space
ENCODING 160
SWIDTH 225 0
DWIDTH 4 0
BBX 0 0 0 0
BITMAP
ENDCHAR
STARTCHAR exclamdown
ENCODING 161
SWIDTH 242 0
DWIDTH 4 0
BBX 2 12 1 -4
BITMAP
C0
C0
00
00
40
40
40
C0
C0
C0
C0
C0
ENDCHAR
STARTCHAR cent
ENCODING 162
SWIDTH 530 0
DWIDTH 9 0
BBX 8 11 0 0
BITMAP
08
08
3E
6B
C8
C8
C8
69
3E
08
08
ENDCHAR
STARTCHAR sterling
ENCODING 163
SWIDTH 530 0
DWIDTH 9 0
BBX 8 11 0 0
BITMAP
1C
22
60
60
30
FE
18
18
10
21
FF
ENDCHAR
STARTCHAR currency
ENCODING 164
SWIDTH 530 0
DWIDTH 9 0
BBX 7 7 1 2
BITMAP
BA
44
82
82
82
44
BA
ENDCHAR
STARTCHAR yen
ENCODING 165
SWIDTH 530 0
DWIDTH 9 0
BBX 9 11 0 0
BITMAP
E780
6100
2200
3400
1400
7F00
1800
7F00
1800
1800
3E00
ENDCHAR
STARTCHAR brokenbar
ENCODING 166
SWIDTH 228 0
DWIDTH 4 0
BBX 1 12 1 0
BITMAP
80
80
80
80
80
00
00
80
80
80
80
80
ENDCHAR
STARTCHAR section
ENCODING 167
SWIDTH 554 0
DWIDTH 9 0
BBX 8 14 1 -2
BITMAP
3C
46
40
E0
B8
8C
86
41
31
1D
06
04
64
38
ENDCHAR
STARTCHAR dieresis
ENCODING 168
SWIDTH 400 0
DWIDTH 7 0
BBX 5 2 1 9
BITMAP
D8
D8
ENDCHAR
STARTCHAR copyright
ENCODING 169
SWIDTH 818 0
DWIDTH 14 0
BBX 12 12 1 0
BITMAP
0F00
30C0
4060
4F20
9890
B010
B010
B010
9890
4F20
6040
1F80
ENDCHAR
STARTCHAR ordfeminine
ENCODING 170
SWIDTH 390 0
DWIDTH 6 0
BBX 6 6 0 4
BITMAP
70
08
F8
C8
7C
04
ENDCHAR
STARTCHAR guillemotleft
ENCODING 171
SWIDTH 442 0
DWIDTH 7 0
BBX 6 7 1 0
BITMAP
24
48
48
D8
48
48
24
ENDCHAR
STARTCHAR logicalnot
ENCODING 172
SWIDTH 570 0
DWIDTH 9 0
BBX 8 5 1 1
BITMAP
FF
01
01
01
01
ENDCHAR
STARTCHAR hyphen
ENCODING 173
SWIDTH 392 0
DWIDTH 7 0
BBX 4 1 1 4
BITMAP
F0
ENDCHAR
STARTCHAR registered
ENCODING 174
SWIDTH 818 0
DWIDTH 14 0
BBX 12 12 1 0
BITMAP
0F00
3080
6040
4E20
8910
8910
8E10
8910
8910
4DA0
2040
1F80
ENDCHAR
STARTCHAR macron
ENCODING 175
SWIDTH 400 0
DWIDTH 7 0
BBX 5 1 1 10
BITMAP
F8
ENDCHAR
STARTCHAR degree
ENCODING 176
SWIDTH 350 0
DWIDTH 6 0
BBX 4 4 1 7
BITMAP
60
90
90
60
ENDCHAR
STARTCHAR plusminus
ENCODING 177
SWIDTH 570 0
DWIDTH 9 0
BBX 7 9 1 0
BITMAP
10
10
10
FE
10
10
10
00
FE
ENDCHAR
STARTCHAR twosuperior
ENCODING 178
SWIDTH 380 0
DWIDTH 6 0
BBX 5 6 1 5
BITMAP
70
98
18
20
C0
F8
ENDCHAR
STARTCHAR threesuperior
ENCODING 179
SWIDTH 380 0
DWIDTH 6 0
BBX 5 6 1 5
BITMAP
70
98
18
60
18
F0
ENDCHAR
STARTCHAR acute
ENCODING 180
SWIDTH 400 0
DWIDTH 7 0
BBX 4 3 2 9
BITMAP
30
60
80
ENDCHAR
STARTCHAR mu
ENCODING 181
SWIDTH 606 0
DWIDTH 10 0
BBX 10 12 0 -4
BITMAP
6180
E380
6180
6180
6180
6180
6380
7DC0
4000
6000
6000
6000
ENDCHAR
STARTCHAR paragraph
ENCODING 182
SWIDTH 555 0
DWIDTH 9 0
BBX 8 14 1 -2
BITMAP
37
74
F4
F4
F4
F4
74
34
04
04
04
04
04
1C
ENDCHAR
STARTCHAR periodcentered
ENCODING 183
SWIDTH 265 0
DWIDTH 4 0
BBX 2 2 1 3
BITMAP
C0
C0
ENDCHAR
STARTCHAR cedilla
ENCODING 184
SWIDTH 400 0
DWIDTH 7 0
BBX 3 4 3 -4
BITMAP
40
C0
60
C0
ENDCHAR
STARTCHAR onesuperior
ENCODING 185
SWIDTH 380 0
DWIDTH 6 0
BBX 3 6 2 5
BITMAP
C0
40
40
40
40
E0
ENDCHAR
STARTCHAR ordmasculine
ENCODING 186
SWIDTH 398 0
DWIDTH 7 0
BBX 6 5 0 5
BITMAP
78
CC
CC
CC
78
ENDCHAR
STARTCHAR guillemotright
ENCODING 187
SWIDTH 442 0
DWIDTH 7 0
BBX 6 7 1 0
BITMAP
90
48
48
6C
48
48
90
ENDCHAR
STARTCHAR onequarter
ENCODING 188
SWIDTH 860 0
DWIDTH 14 0
BBX 12 12 1 0
BITMAP
0080
C0C0
4180
4100
4300
4220
E460
0CA0
08A0
1120
11F0
2070
ENDCHAR
STARTCHAR onehalf
ENCODING 189
SWIDTH 860 0
DWIDTH 14 0
BBX 12 12 1 0
BITMAP
0080
C080
4100
4300
4200
4460
E4B0
0820
1020
1040
2090
20F0
ENDCHAR
STARTCHAR threequarters
ENCODING 190
SWIDTH 860 0
DWIDTH 14 0
BBX 12 12 1 0
BITMAP
0040
7040
98C0
1880
6180
1B20
F260
04A0
04A0
0920
11F0
1070
ENDCHAR
STARTCHAR questiondown
ENCODING 191
SWIDTH 389 0
DWIDTH 6 0
BBX 6 12 0 -4
BITMAP
10
10
00
70
18
18
30
60
40
CC
C8
70
ENDCHAR
STARTCHAR Agrave
ENCODING 192
SWIDTH 635 0
DWIDTH 11 0
BBX 11 15 0 0
BITMAP
1800
1C00
0600
0000
0E00
0E00
1200
1300
1300
3F00
2180
2180
4080
40C0
E1E0
ENDCHAR
STARTCHAR Aacute
ENCODING 193
SWIDTH 635 0
DWIDTH 11 0
BBX 11 14 0 0
BITMAP
0F00
0000
0400
0E00
0E00
1200
1300
1300
3F00
2180
2180
4080
40C0
E1E0
ENDCHAR
STARTCHAR Acircumflex
ENCODING 194
SWIDTH 635 0
DWIDTH 11 0
BBX 11 15 0 0
BITMAP
0400
0E00
1100
0400
0E00
0E00
0A00
1300
1100
1F00
2180
2180
2080
40C0
F1E0
ENDCHAR
STARTCHAR Atilde
ENCODING 195
SWIDTH 635 0
DWIDTH 11 0
BBX 11 14 0 0
BITMAP
1880
2700
0000
0E00
0E00
0A00
1300
1100
1F00
2180
2180
2080
40C0
F1E0
ENDCHAR
STARTCHAR Adieresis
ENCODING 196
SWIDTH 635 0
DWIDTH 11 0
BBX 11 14 0 0
BITMAP
1B00
1B00
0000
0600
0E00
0A00
1300
1100
1F00
2180
2180
4080
40C0
F1E0
ENDCHAR
STARTCHAR Aring
ENCODING 197
SWIDTH 627 0
DWIDTH 10 0
BBX 11 15 0 0
BITMAP
0C00
1200
1200
0C00
0C00
1600
1600
1200
2300
3F00
2180
2180
4080
40C0
E1E0
ENDCHAR
STARTCHAR AE
ENCODING 198
SWIDTH 876 0
DWIDTH 15 0
BBX 16 12 -1 0
BITMAP
07FE
0386
0582
0580
0984
0984
1FFC
1184
2180
2181
4182
E3FE
ENDCHAR
STARTCHAR Ccedilla
ENCODING 199
SWIDTH 680 0
DWIDTH 11 0
BBX 10 16 1 -4
BITMAP
0F00
30C0
6040
4000
C000
C000
C000
C000
C040
6040
30C0
1F00
0800
0C00
0600
0C00
ENDCHAR
STARTCHAR Egrave
ENCODING 200
SWIDTH 606 0
DWIDTH 10 0
BBX 9 15 1 0
BITMAP
6000
7800
1800
FF00
6300
6100
6000
6200
6200
7E00
6200
6000
6080
6100
FF00
ENDCHAR
STARTCHAR Eacute
ENCODING 201
SWIDTH 606 0
DWIDTH 10 0
BBX 9 14 1 0
BITMAP
0600
1800
FF00
6300
6100
6000
6200
6200
7E00
6200
6000
6080
6100
FF00
ENDCHAR
STARTCHAR Ecircumflex
ENCODING 202
SWIDTH 606 0
DWIDTH 10 0
BBX 9 15 1 0
BITMAP
1000
7C00
0000
FF00
6300
6100
6000
6200
6200
7E00
6200
6000
6080
6100
FF00
ENDCHAR
STARTCHAR Edieresis
ENCODING 203
SWIDTH 606 0
DWIDTH 10 0
BBX 9 14 1 0
BITMAP
6600
6600
FF00
6100
6100
6000
6200
6200
7E00
6200
6000
6080
6100
FF00
ENDCHAR
STARTCHAR Igrave
ENCODING 204
SWIDTH 349 0
DWIDTH 6 0
BBX 5 15 0 0
BITMAP
40
F0
00
78
30
30
30
30
30
30
30
30
30
30
78
ENDCHAR
STARTCHAR Iacute
ENCODING 205
SWIDTH 349 0
DWIDTH 6 0
BBX 5 14 1 0
BITMAP
78
00
F0
60
60
60
60
60
60
60
60
60
60
F0
ENDCHAR
STARTCHAR Icircumflex
ENCODING 206
SWIDTH 349 0
DWIDTH 6 0
BBX 6 15 0 0
BITMAP
10
FC
00
78
30
30
30
30
30
30
30
30
30
30
78
ENDCHAR
STARTCHAR Idieresis
ENCODING 207
SWIDTH 349 0
DWIDTH 6 0
BBX 6 14 0 0
BITMAP
CC
CC
FC
30
30
30
30
30
30
30
30
30
30
78
ENDCHAR
STARTCHAR Eth
ENCODING 208
SWIDTH 785 0
DWIDTH 13 0
BBX 12 12 0 0
BITMAP
7F00
30C0
3060
3070
3030
3030
FC30
3030
3020
3060
30C0
7F00
ENDCHAR
STARTCHAR Ntilde
ENCODING 209
SWIDTH 780 0
DWIDTH 13 0
BBX 11 14 1 0
BITMAP
3980
0600
E0E0
7040
7040
5840
4C40
4C40
4640
4340
4340
41C0
40C0
F0C0
ENDCHAR
STARTCHAR Ograve
ENCODING 210
SWIDTH 762 0
DWIDTH 13 0
BBX 11 15 1 0
BITMAP
1000
1C00
0600
0E00
3180
60C0
4040
C060
C060
C060
C060
4040
60C0
3180
0E00
ENDCHAR
STARTCHAR Oacute
ENCODING 211
SWIDTH 762 0
DWIDTH 13 0
BBX 11 14 1 0
BITMAP
0300
0C00
0E00
3180
60C0
4040
C060
C060
C060
C060
4040
60C0
3180
0E00
ENDCHAR
STARTCHAR Ocircumflex
ENCODING 212
SWIDTH 762 0
DWIDTH 13 0
BBX 11 15 1 0
BITMAP
0400
1F00
0000
0E00
3180
60C0
4040
C060
C060
C060
C060
4040
60C0
3180
0E00
ENDCHAR
STARTCHAR Otilde
ENCODING 213
SWIDTH 762 0
DWIDTH 13 0
BBX 11 14 1 0
BITMAP
1880
2700
0E00
3180
60C0
4040
C060
C060
C060
C060
4040
60C0
3180
0E00
ENDCHAR
STARTCHAR Odieresis
ENCODING 214
SWIDTH 762 0
DWIDTH 13 0
BBX 11 14 1 0
BITMAP
1B00
1100
0400
3B80
60C0
4040
C060
C060
C060
C060
4040
60C0
3180
0E00
ENDCHAR
STARTCHAR multiply
ENCODING 215
SWIDTH 570 0
DWIDTH 9 0
BBX 7 8 1 0
BITMAP
82
44
6C
38
38
6C
44
82
ENDCHAR
STARTCHAR Oslash
ENCODING 216
SWIDTH 762 0
DWIDTH 13 0
BBX 11 13 1 -1
BITMAP
0E40
3180
61C0
4140
C260
C460
C460
C860
5040
70C0
3180
4E00
4000
ENDCHAR
STARTCHAR Ugrave
ENCODING 217
SWIDTH 791 0
DWIDTH 13 0
BBX 11 15 1 0
BITMAP
1800
1C00
0600
F0E0
60C0
60C0
60C0
60C0
60C0
60C0
60C0
60C0
2080
3180
0E00
ENDCHAR
STARTCHAR Uacute
ENCODING 218
SWIDTH 791 0
DWIDTH 13 0
BBX 11 14 1 0
BITMAP
0300
0400
F1E0
60C0
60C0
60C0
60C0
60C0
60C0
60C0
60C0
2080
3180
0E00
ENDCHAR
STARTCHAR Ucircumflex
ENCODING 219
SWIDTH 791 0
DWIDTH 13 0
BBX 11 15 1 0
BITMAP
0400
1F00
0000
F1E0
60C0
60C0
60C0
60C0
60C0
60C0
60C0
60C0
2080
3180
0E00
ENDCHAR
STARTCHAR Udieresis
ENCODING 220
SWIDTH 791 0
DWIDTH 13 0
BBX 11 14 1 0
BITMAP
1B00
0A00
E0E0
60C0
60C0
60C0
60C0
60C0
60C0
60C0
60C0
2080
3180
0E00
ENDCHAR
STARTCHAR Yacute
ENCODING 221
SWIDTH 588 0
DWIDTH 10 0
BBX 10 14 0 0
BITMAP
0300
0400
F1C0
6080
2100
3100
1A00
1A00
0C00
0C00
0C00
0C00
0C00
1F00
ENDCHAR
STARTCHAR Thorn
ENCODING 222
SWIDTH 593 0
DWIDTH 10 0
BBX 8 12 1 0
BITMAP
F0
60
60
7C
62
63
63
62
7C
60
60
F0
ENDCHAR
STARTCHAR germandbls
ENCODING 223
SWIDTH 601 0
DWIDTH 10 0
BBX 10 12 0 0
BITMAP
1E00
3100
2180
6100
6200
6200
6700
6380
61C0
60C0
6680
F380
ENDCHAR
STARTCHAR agrave
ENCODING 224
SWIDTH 523 0
DWIDTH 9 0
BBX 7 12 1 0
BITMAP
60
20
10
00
38
CC
8C
3C
CC
CC
CC
7E
ENDCHAR
STARTCHAR aacute
ENCODING 225
SWIDTH 523 0
DWIDTH 9 0
BBX 7 12 1 0
BITMAP
0C
10
20
00
38
CC
8C
3C
CC
CC
CC
7E
ENDCHAR
STARTCHAR acircumflex
ENCODING 226
SWIDTH 523 0
DWIDTH 9 0
BBX 7 12 1 0
BITMAP
10
30
48
00
38
CC
CC
1C
6C
CC
CC
7E
ENDCHAR
STARTCHAR atilde
ENCODING 227
SWIDTH 523 0
DWIDTH 9 0
BBX 7 12 1 0
BITMAP
04
7C
80
00
38
CC
8C
3C
CC
CC
CC
7E
ENDCHAR
STARTCHAR adieresis
ENCODING 228
SWIDTH 523 0
DWIDTH 9 0
BBX 7 11 1 0
BITMAP
6C
6C
00
38
CC
8C
3C
CC
CC
CC
7E
ENDCHAR
STARTCHAR aring
ENCODING 229
SWIDTH 523 0
DWIDTH 9 0
BBX 7 13 1 0
BITMAP
10
28
28
10
00
38
CC
8C
3C
CC
CC
CC
7E
ENDCHAR
STARTCHAR ae
ENCODING 230
SWIDTH 797 0
DWIDTH 13 0
BBX 12 8 1 0
BITMAP
3BC0
CE20
CC30
1FF0
6C00
CC10
CE20
73C0
ENDCHAR
STARTCHAR ccedilla
ENCODING 231
SWIDTH 496 0
DWIDTH 8 0
BBX 7 12 1 -4
BITMAP
38
4E
C4
C0
C0
C2
44
38
10
10
18
30
ENDCHAR
STARTCHAR egrave
ENCODING 232
SWIDTH 514 0
DWIDTH 9 0
BBX 7 12 1 0
BITMAP
40
20
18
00
38
44
C6
FE
C0
C2
64
38
ENDCHAR
STARTCHAR eacute
ENCODING 233
SWIDTH 514 0
DWIDTH 9 0
BBX 7 12 1 0
BITMAP
04
0C
10
00
38
44
C6
FE
C0
C2
64
38
ENDCHAR
STARTCHAR ecircumflex
ENCODING 234
SWIDTH 514 0
DWIDTH 9 0
BBX 7 12 1 0
BITMAP
10
38
24
00
38
44
C6
FE
C0
C2
64
38
ENDCHAR
STARTCHAR edieresis
ENCODING 235
SWIDTH 514 0
DWIDTH 9 0
BBX 7 11 1 0
BITMAP
6C
6C
00
38
44
C6
FE
C0
C2
64
38
ENDCHAR
STARTCHAR igrave
ENCODING 236
SWIDTH 291 0
DWIDTH 5 0
BBX 5 12 0 0
BITMAP
40
E0
30
00
30
70
30
30
30
30
30
78
ENDCHAR
STARTCHAR iacute
ENCODING 237
SWIDTH 291 0
DWIDTH 5 0
BBX 4 12 1 0
BITMAP
10
30
C0
00
60
E0
60
60
60
60
60
F0
ENDCHAR
STARTCHAR icircumflex
ENCODING 238
SWIDTH 291 0
DWIDTH 5 0
BBX 6 12 0 0
BITMAP
20
30
48
84
30
70
30
30
30
30
30
78
ENDCHAR
STARTCHAR idieresis
ENCODING 239
SWIDTH 291 0
DWIDTH 5 0
BBX 6 11 0 0
BITMAP
CC
C8
00
30
70
30
30
30
30
30
78
ENDCHAR
STARTCHAR eth
ENCODING 240
SWIDTH 577 0
DWIDTH 10 0
BBX 8 12 1 0
BITMAP
60
36
38
0C
3E
66
C3
C3
C3
C3
66
3C
ENDCHAR
STARTCHAR ntilde
ENCODING 241
SWIDTH 619 0
DWIDTH 10 0
BBX 9 12 1 0
BITMAP
0200
3E00
4000
0000
6E00
F300
6300
6300
6300
6300
6300
F780
ENDCHAR
STARTCHAR ograve
ENCODING 242
SWIDTH 577 0
DWIDTH 10 0
BBX 8 12 1 0
BITMAP
20
70
18
00
3C
66
C3
C3
C3
C3
66
3C
ENDCHAR
STARTCHAR oacute
ENCODING 243
SWIDTH 577 0
DWIDTH 10 0
BBX 8 12 1 0
BITMAP
04
0C
10
00
3C
66
C3
C3
C3
C3
66
3C
ENDCHAR
STARTCHAR ocircumflex
ENCODING 244
SWIDTH 577 0
DWIDTH 10 0
BBX 8 12 1 0
BITMAP
08
18
24
00
3C
66
C3
C3
C3
C3
66
3C
ENDCHAR
STARTCHAR otilde
ENCODING 245
SWIDTH 577 0
DWIDTH 10 0
BBX 8 12 1 0
BITMAP
02
3E
40
00
3C
66
C3
C3
C3
C3
66
3C
ENDCHAR
STARTCHAR odieresis
ENCODING 246
SWIDTH 577 0
DWIDTH 10 0
BBX 8 11 1 0
BITMAP
66
66
00
3C
66
C3
C3
C3
C3
66
3C
ENDCHAR
STARTCHAR divide
ENCODING 247
SWIDTH 570 0
DWIDTH 9 0
BBX 8 7 1 0
BITMAP
18
18
00
FF
00
18
18
ENDCHAR
STARTCHAR oslash
ENCODING 248
SWIDTH 577 0
DWIDTH 10 0
BBX 8 8 1 0
BITMAP
3A
66
CA
CB
D3
E3
66
5C
ENDCHAR
STARTCHAR ugrave
ENCODING 249
SWIDTH 606 0
DWIDTH 10 0
BBX 10 13 0 0
BITMAP
2000
3000
0800
0400
0000
6180
E380
6180
6180
6180
6180
6380
3DC0
ENDCHAR
STARTCHAR uacute
ENCODING 250
SWIDTH 606 0
DWIDTH 10 0
BBX 10 13 0 0
BITMAP
0100
0300
0400
0800
0000
6180
E380
6180
6180
6180
6180
6380
3DC0
ENDCHAR
STARTCHAR ucircumflex
ENCODING 251
SWIDTH 606 0
DWIDTH 10 0
BBX 10 12 0 0
BITMAP
0400
0C00
1300
0000
6180
E380
6180
6180
6180
6180
6380
3DC0
ENDCHAR
STARTCHAR udieresis
ENCODING 252
SWIDTH 606 0
DWIDTH 10 0
BBX 10 11 0 0
BITMAP
3300
3300
0000
6180
E380
6180
6180
6180
6180
6380
3DC0
ENDCHAR
STARTCHAR yacute
ENCODING 253
SWIDTH 506 0
DWIDTH 8 0
BBX 9 16 0 -4
BITMAP
0300
0600
0800
0000
F380
6100
2100
3200
3200
1A00
1C00
0C00
0800
0800
5000
7000
ENDCHAR
STARTCHAR thorn
ENCODING 254
SWIDTH 606 0
DWIDTH 10 0
BBX 9 16 0 -4
BITMAP
E000
6000
6000
6000
6E00
7300
6180
6180
6180
6100
6300
7E00
6000
6000
6000
F000
ENDCHAR
STARTCHAR ydieresis
ENCODING 255
SWIDTH 506 0
DWIDTH 8 0
BBX 9 15 0 -4
BITMAP
3600
3600
0000
F380
6100
2100
3200
3200
1A00
1C00
0C00
0800
0800
5000
7000
ENDCHAR
STARTCHAR Amacron
ENCODING 256
SWIDTH 635 0
DWIDTH 11 0
BBX 11 14 0 0
BITMAP
1F00
0000
0400
0E00
0E00
0A00
1300
1100
1F00
2180
2180
2080
40C0
F1E0
ENDCHAR
STARTCHAR amacron
ENCODING 257
SWIDTH 523 0
DWIDTH 9 0
BBX 7 10 1 0
BITMAP
7C
00
38
CC
8C
3C
CC
CC
CC
7E
ENDCHAR
STARTCHAR Abreve
ENCODING 258
SWIDTH 635 0
DWIDTH 11 0
BBX 11 16 0 0
BITMAP
1100
1100
0E00
0000
0400
0E00
0E00
0A00
1300
1100
1F00
2180
2180
2080
40C0
F1E0
ENDCHAR
STARTCHAR abreve
ENCODING 259
SWIDTH 523 0
DWIDTH 9 0
BBX 7 12 1 0
BITMAP
44
44
38
00
38
CC
8C
3C
CC
CC
CC
7E
ENDCHAR
STARTCHAR Aogonek
ENCODING 260
SWIDTH 635 0
DWIDTH 11 0
BBX 11 16 0 -4
BITMAP
0400
0E00
0E00
0A00
1300
1100
1F00
2180
2180
2080
40C0
F1E0
0200
0400
0400
0700
ENDCHAR
STARTCHAR aogonek
ENCODING 261
SWIDTH 523 0
DWIDTH 9 0
BBX 7 12 1 -4
BITMAP
38
CC
8C
3C
CC
CC
CC
7E
10
20
20
38
ENDCHAR
STARTCHAR Cacute
ENCODING 262
SWIDTH 684 0
DWIDTH 11 0
BBX 10 16 1 0
BITMAP
0300
0600
0800
0000
0F80
30C0
6040
4000
C000
C000
C000
C000
C040
6040
30C0
0F00
ENDCHAR
STARTCHAR cacute
ENCODING 263
SWIDTH 496 0
DWIDTH 8 0
BBX 7 12 1 0
BITMAP
06
0C
10
00
3C
66
C2
C0
C0
C0
62
3C
ENDCHAR
STARTCHAR Ccircumflex
ENCODING 264
SWIDTH 684 0
DWIDTH 11 0
BBX 10 16 1 0
BITMAP
0400
0A00
1100
0000
0F80
30C0
6040
4000
C000
C000
C000
C000
C040
6040
30C0
0F00
ENDCHAR
STARTCHAR ccircumflex
ENCODING 265
SWIDTH 496 0
DWIDTH 8 0
BBX 7 12 1 0
BITMAP
10
28
44
00
3C
66
C2
C0
C0
C0
62
3C
ENDCHAR
STARTCHAR Cdotaccent
ENCODING 266
SWIDTH 684 0
DWIDTH 11 0
BBX 10 15 1 0
BITMAP
0C00
0C00
0000
0F80
30C0
6040
4000
C000
C000
C000
C000
C040
6040
30C0
0F00
ENDCHAR
STARTCHAR cdotaccent
ENCODING 267
SWIDTH 496 0
DWIDTH 8 0
BBX 7 11 1 0
BITMAP
18
18
00
3C
66
C2
C0
C0
C0
62
3C
ENDCHAR
STARTCHAR Ccaron
ENCODING 268
SWIDTH 684 0
DWIDTH 11 0
BBX 10 16 1 0
BITMAP
1100
0E00
0400
0000
0F80
30C0
6040
4000
C000
C000
C000
C000
C040
6040
30C0
0F00
ENDCHAR
STARTCHAR ccaron
ENCODING 269
SWIDTH 496 0
DWIDTH 8 0
BBX 7 12 1 0
BITMAP
44
38
10
00
3C
66
C2
C0
C0
C0
62
3C
ENDCHAR
STARTCHAR Dcaron
ENCODING 270
SWIDTH 779 0
DWIDTH 13 0
BBX 12 16 0 0
BITMAP
1100
0E00
0400
0000
7F00
30C0
3060
3030
3030
3030
3030
3030
3020
3060
30C0
FF00
ENDCHAR
STARTCHAR dcaron
ENCODING 271
SWIDTH 846 0
DWIDTH 15 0
BBX 12 12 1 0
BITMAP
0330
0710
0310
0320
1F00
6300
4300
C300
C300
C300
6700
3B80
ENDCHAR
STARTCHAR Dcroat
ENCODING 272
SWIDTH 785 0
DWIDTH 13 0
BBX 12 12 0 0
BITMAP
7F00
30C0
3060
3070
3030
3030
FC30
3030
3020
3060
30C0
7F00
ENDCHAR
STARTCHAR dcroat
ENCODING 273
SWIDTH 598 0
DWIDTH 10 0
BBX 9 12 1 0
BITMAP
0300
0700
0F00
0300
1F00
6300
4300
C300
C300
C300
6700
3B80
ENDCHAR
STARTCHAR Emacron
ENCODING 274
SWIDTH 606 0
DWIDTH 10 0
BBX 9 14 1 0
BITMAP
3E00
0000
FF00
6300
6100
6000
6200
6200
7E00
6200
6000
6080
6100
FF00
ENDCHAR
STARTCHAR emacron
ENCODING 275
SWIDTH 514 0
DWIDTH 9 0
BBX 7 10 1 0
BITMAP
7C
00
38
44
C6
FE
C0
C2
64
38
ENDCHAR
STARTCHAR Ebreve
ENCODING 276
SWIDTH 606 0
DWIDTH 10 0
BBX 9 16 1 0
BITMAP
2200
2200
1C00
0000
FF00
6300
6100
6000
6200
6200
7E00
6200
6000
6080
6100
FF00
ENDCHAR
STARTCHAR ebreve
ENCODING 277
SWIDTH 514 0
DWIDTH 9 0
BBX 7 12 1 0
BITMAP
44
44
38
00
38
44
C6
FE
C0
C2
64
38
ENDCHAR
STARTCHAR Edotaccent
ENCODING 278
SWIDTH 606 0
DWIDTH 10 0
BBX 9 15 1 0
BITMAP
1800
1800
0000
FF00
6300
6100
6000
6200
6200
7E00
6200
6000
6080
6100
FF00
ENDCHAR
STARTCHAR edotaccent
ENCODING 279
SWIDTH 514 0
DWIDTH 9 0
BBX 7 11 1 0
BITMAP
18
18
00
38
44
C6
FE
C0
C2
64
38
ENDCHAR
STARTCHAR Eogonek
ENCODING 280
SWIDTH 606 0
DWIDTH 10 0
BBX 9 16 1 -4
BITMAP
FF00
6300
6100
6000
6200
6200
7E00
6200
6000
6080
6100
FF00
0800
1000
1000
1C00
ENDCHAR
STARTCHAR eogonek
ENCODING 281
SWIDTH 514 0
DWIDTH 9 0
BBX 7 12 1 -4
BITMAP
38
44
C6
FE
C0
C2
64
38
10
20
20
38
ENDCHAR
STARTCHAR Ecaron
ENCODING 282
SWIDTH 606 0
DWIDTH 10 0
BBX 9 16 1 0
BITMAP
2200
1C00
0800
0000
FF00
6300
6100
6000
6200
6200
7E00
6200
6000
6080
6100
FF00
ENDCHAR
STARTCHAR ecaron
ENCODING 283
SWIDTH 514 0
DWIDTH 9 0
BBX 7 12 1 0
BITMAP
44
38
10
00
38
44
C6
FE
C0
C2
64
38
ENDCHAR
STARTCHAR Gcircumflex
ENCODING 284
SWIDTH 734 0
DWIDTH 12 0
BBX 11 16 1 0
BITMAP
0400
0A00
1100
0000
0F80
30C0
6040
4000
C000
C000
C3E0
C0C0
40C0
60C0
30C0
0F00
ENDCHAR
STARTCHAR gcircumflex
ENCODING 285
SWIDTH 520 0
DWIDTH 9 0
BBX 9 16 0 -4
BITMAP
0800
1400
2200
0000
1D80
2200
6300
6300
3C00
2000
6000
3F00
4180
C180
4300
3C00
ENDCHAR
STARTCHAR Gbreve
ENCODING 286
SWIDTH 734 0
DWIDTH 12 0
BBX 11 16 1 0
BITMAP
1100
1100
0E00
0000
0F80
30C0
6040
4000
C000
C000
C3E0
C0C0
40C0
60C0
30C0
0F00
ENDCHAR
STARTCHAR gbreve
ENCODING 287
SWIDTH 520 0
DWIDTH 9 0
BBX 9 16 0 -4
BITMAP
2200
2200
1C00
0000
1D80
2200
6300
6300
3C00
2000
6000
3F00
4180
C180
4300
3C00
ENDCHAR
STARTCHAR Gdotaccent
ENCODING 288
SWIDTH 734 0
DWIDTH 12 0
BBX 11 15 1 0
BITMAP
0600
0600
0000
0F80
30C0
6040
4000
C000
C000
C3E0
C0C0
40C0
60C0
30C0
0F00
ENDCHAR
STARTCHAR gdotaccent
ENCODING 289
SWIDTH 520 0
DWIDTH 9 0
BBX 9 15 0 -4
BITMAP
0C00
0C00
0000
1D80
2200
6300
6300
3C00
2000
6000
3F00
4180
C180
4300
3C00
ENDCHAR
STARTCHAR Gcommaaccent
ENCODING 290
SWIDTH 734 0
DWIDTH 12 0
BBX 11 18 1 -6
BITMAP
0F80
30C0
6040
4000
C000
C000
C3E0
C0C0
40C0
60C0
30C0
0F00
0000
0400
0600
0600
0400
0800
ENDCHAR
STARTCHAR gcommaaccent
ENCODING 291
SWIDTH 520 0
DWIDTH 9 0
BBX 9 17 0 -4
BITMAP
0400
0800
0800
0C00
0000
1D80
2200
6300
6300
3C00
2000
6000
3F00
4180
C180
4300
3C00
ENDCHAR
STARTCHAR Hcircumflex
ENCODING 292
SWIDTH 798 0
DWIDTH 13 0
BBX 11 16 1 0
BITMAP
0400
0A00
1100
0000
F1E0
60C0
60C0
60C0
60C0
60C0
7FC0
60C0
60C0
60C0
60C0
F1E0
ENDCHAR
STARTCHAR hcircumflex
ENCODING 293
SWIDTH 607 0
DWIDTH 10 0
BBX 10 16 0 0
BITMAP
2000
5000
8800
0000
6000
E000
6000
6000
6F00
7180
6180
6180
6180
6180
6180
F3C0
ENDCHAR
STARTCHAR Hbar
ENCODING 294
SWIDTH 798 0
DWIDTH 13 0
BBX 11 12 1 0
BITMAP
F1E0
60C0
60C0
FFE0
60C0
60C0
7FC0
60C0
60C0
60C0
60C0
F1E0
ENDCHAR
STARTCHAR hbar
ENCODING 295
SWIDTH 607 0
DWIDTH 10 0
BBX 10 12 0 0
BITMAP
6000
E000
7800
6000
6F00
7180
6180
6180
6180
6180
6180
F3C0
ENDCHAR
STARTCHAR Itilde
ENCODING 296
SWIDTH 349 0
DWIDTH 6 0
BBX 6 15 0 0
BITMAP
64
98
00
78
30
30
30
30
30
30
30
30
30
30
78
ENDCHAR
STARTCHAR itilde
ENCODING 297
SWIDTH 291 0
DWIDTH 5 0
BBX 6 11 0 0
BITMAP
64
98
00
30
70
30
30
30
30
30
78
ENDCHAR
STARTCHAR Imacron
ENCODING 298
SWIDTH 349 0
DWIDTH 6 0
BBX 5 14 1 0
BITMAP
F8
00
F0
60
60
60
60
60
60
60
60
60
60
F0
ENDCHAR
STARTCHAR imacron
ENCODING 299
SWIDTH 291 0
DWIDTH 5 0
BBX 5 10 0 0
BITMAP
F8
00
30
70
30
30
30
30
30
78
ENDCHAR
STARTCHAR Ibreve
ENCODING 300
SWIDTH 349 0
DWIDTH 6 0
BBX 5 16 1 0
BITMAP
88
88
70
00
F0
60
60
60
60
60
60
60
60
60
60
F0
ENDCHAR
STARTCHAR ibreve
ENCODING 301
SWIDTH 291 0
DWIDTH 5 0
BBX 5 12 0 0
BITMAP
88
88
70
00
30
70
30
30
30
30
30
78
ENDCHAR
STARTCHAR Iogonek
ENCODING 302
SWIDTH 349 0
DWIDTH 6 0
BBX 4 16 1 -4
BITMAP
F0
60
60
60
60
60
60
60
60
60
60
F0
20
40
40
70
ENDCHAR
STARTCHAR iogonek
ENCODING 303
SWIDTH 291 0
DWIDTH 5 0
BBX 4 16 1 -4
BITMAP
60
60
00
00
60
E0
60
60
60
60
60
F0
20
40
40
70
ENDCHAR
STARTCHAR Idotaccent
ENCODING 304
SWIDTH 349 0
DWIDTH 6 0
BBX 4 15 1 0
BITMAP
60
60
00
F0
60
60
60
60
60
60
60
60
60
60
F0
ENDCHAR
STARTCHAR dotlessi
ENCODING 305
SWIDTH 291 0
DWIDTH 5 0
BBX 4 8 1 0
BITMAP
60
E0
60
60
60
60
60
F0
ENDCHAR
STARTCHAR IJ
ENCODING 306
SWIDTH 682 0
DWIDTH 12 0
BBX 10 14 1 -2
BITMAP
F3C0
6180
6180
6180
6180
6180
6180
6180
6180
6180
6180
F180
0100
0600
ENDCHAR
STARTCHAR ij
ENCODING 307
SWIDTH 556 0
DWIDTH 10 0
BBX 8 16 1 -4
BITMAP
63
63
00
00
63
E7
63
63
63
63
63
F3
03
02
06
08
ENDCHAR
STARTCHAR Jcircumflex
ENCODING 308
SWIDTH 350 0
DWIDTH 6 0
BBX 5 18 0 -2
BITMAP
20
50
88
00
78
30
30
30
30
30
30
30
30
30
30
30
20
C0
ENDCHAR
STARTCHAR jcircumflex
ENCODING 309
SWIDTH 280 0
DWIDTH 5 0
BBX 5 16 0 -4
BITMAP
20
50
88
00
30
70
30
30
30
30
30
30
30
20
60
80
ENDCHAR
STARTCHAR Kcommaaccent
ENCODING 310
SWIDTH 658 0
DWIDTH 11 0
BBX 10 18 1 -6
BITMAP
F3C0
6100
6200
6400
6800
7800
7800
6C00
6600
6300
6180
F0C0
0000
0800
0C00
0C00
0800
1000
ENDCHAR
STARTCHAR kcommaaccent
ENCODING 311
SWIDTH 524 0
DWIDTH 9 0
BBX 9 18 0 -6
BITMAP
6000
E000
6000
6000
6300
6400
6800
7800
7800
6C00
6700
F180
0000
1000
1800
1800
1000
2000
ENDCHAR
STARTCHAR kgreenlandic
ENCODING 312
SWIDTH 524 0
DWIDTH 9 0
BBX 9 8 0 0
BITMAP
6300
6400
6800
7800
7800
6C00
6700
F180
ENDCHAR
STARTCHAR Lacute
ENCODING 313
SWIDTH 568 0
DWIDTH 9 0
BBX 9 16 1 0
BITMAP
0C00
1800
2000
0000
F000
6000
6000
6000
6000
6000
6000
6000
6000
6080
6100
FF00
ENDCHAR
STARTCHAR lacute
ENCODING 314
SWIDTH 279 0
DWIDTH 5 0
BBX 5 16 0 0
BITMAP
18
30
40
00
60
E0
60
60
60
60
60
60
60
60
60
F0
ENDCHAR
STARTCHAR Lcommaaccent
ENCODING 315
SWIDTH 568 0
DWIDTH 9 0
BBX 9 18 1 -6
BITMAP
F000
6000
6000
6000
6000
6000
6000
6000
6000
6080
6100
FF00
0000
1000
1800
1800
1000
2000
ENDCHAR
STARTCHAR lcommaaccent
ENCODING 316
SWIDTH 279 0
DWIDTH 5 0
BBX 4 18 0 -6
BITMAP
60
E0
60
60
60
60
60
60
60
60
60
F0
00
40
60
60
40
80
ENDCHAR
STARTCHAR Lcaron
ENCODING 317
SWIDTH 818 0
DWIDTH 14 0
BBX 11 12 1 0
BITMAP
F060
6020
6020
6040
6000
6000
6000
6000
6000
6080
6100
FF00
ENDCHAR
STARTCHAR lcaron
ENCODING 318
SWIDTH 543 0
DWIDTH 10 0
BBX 8 12 0 0
BITMAP
63
E1
61
62
60
60
60
60
60
60
60
F0
ENDCHAR
STARTCHAR Ldot
ENCODING 319
SWIDTH 805 0
DWIDTH 13 0
BBX 11 12 1 0
BITMAP
F000
6000
6000
6000
6000
6000
6000
6060
6060
6080
6100
FF00
ENDCHAR
STARTCHAR ldot
ENCODING 320
SWIDTH 530 0
DWIDTH 9 0
BBX 8 12 0 0
BITMAP
60
E0
60
60
60
60
60
63
63
60
60
F0
ENDCHAR
STARTCHAR Lslash
ENCODING 321
SWIDTH 574 0
DWIDTH 10 0
BBX 10 12 0 0
BITMAP
7800
3000
3000
3000
3400
3800
7000
B000
3000
3040
3080
7F80
ENDCHAR
STARTCHAR lslash
ENCODING 322
SWIDTH 294 0
DWIDTH 5 0
BBX 5 12 -1 0
BITMAP
30
70
30
30
38
30
70
B0
30
30
30
78
ENDCHAR
STARTCHAR Nacute
ENCODING 323
SWIDTH 780 0
DWIDTH 13 0
BBX 11 16 1 0
BITMAP
0300
0600
0800
0000
E1E0
7040
7040
5840
4C40
4C40
4640
4340
4340
41C0
40C0
F0C0
ENDCHAR
STARTCHAR nacute
ENCODING 324
SWIDTH 619 0
DWIDTH 10 0
BBX 9 12 1 0
BITMAP
0600
0C00
1000
0000
6E00
F300
6300
6300
6300
6300
6300
F780
ENDCHAR
STARTCHAR Ncommaaccent
ENCODING 325
SWIDTH 780 0
DWIDTH 13 0
BBX 11 18 1 -6
BITMAP
E1E0
7040
7040
5840
4C40
4C40
4640
4340
4340
41C0
40C0
F0C0
0000
0400
0600
0600
0400
0800
ENDCHAR
STARTCHAR ncommaaccent
ENCODING 326
SWIDTH 619 0
DWIDTH 10 0
BBX 9 14 1 -6
BITMAP
6E00
F300
6300
6300
6300
6300
6300
F780
0000
0800
0C00
0C00
0800
1000
ENDCHAR
STARTCHAR Ncaron
ENCODING 327
SWIDTH 780 0
DWIDTH 13 0
BBX 11 16 1 0
BITMAP
1100
0E00
0400
0000
E1E0
7040
7040
5840
4C40
4C40
4640
4340
4340
41C0
40C0
F0C0
ENDCHAR
STARTCHAR ncaron
ENCODING 328
SWIDTH 619 0
DWIDTH 10 0
BBX 9 12 1 0
BITMAP
2200
1C00
0800
0000
6E00
F300
6300
6300
6300
6300
6300
F780
ENDCHAR
STARTCHAR napostrophe
ENCODING 329
SWIDTH 883 0
DWIDTH 15 0
BBX 14 12 1 0
BITMAP
C000
4000
4000
8000
0370
0798
0318
0318
0318
0318
0318
07BC
ENDCHAR
STARTCHAR Eng
ENCODING 330
SWIDTH 780 0
DWIDTH 13 0
BBX 11 16 1 -4
BITMAP
E1E0
7040
7040
5840
4C40
4C40
4640
4340
43C0
41C0
40C0
F0C0
00C0
0080
0180
0200
ENDCHAR
STARTCHAR eng
ENCODING 331
SWIDTH 619 0
DWIDTH 10 0
BBX 8 12 1 -4
BITMAP
6E
F3
63
63
63
63
63
F3
03
02
06
08
ENDCHAR
STARTCHAR Omacron
ENCODING 332
SWIDTH 762 0
DWIDTH 13 0
BBX 11 14 1 0
BITMAP
1F00
0000
0E00
3180
60C0
4040
C060
C060
C060
C060
4040
60C0
3180
0E00
ENDCHAR
STARTCHAR omacron
ENCODING 333
SWIDTH 577 0
DWIDTH 10 0
BBX 8 10 1 0
BITMAP
3E
00
3C
66
C3
C3
C3
C3
66
3C
ENDCHAR
STARTCHAR Obreve
ENCODING 334
SWIDTH 762 0
DWIDTH 13 0
BBX 11 16 1 0
BITMAP
1100
1100
0E00
0000
0E00
3180
60C0
4040
C060
C060
C060
C060
4040
60C0
3180
0E00
ENDCHAR
STARTCHAR obreve
ENCODING 335
SWIDTH 577 0
DWIDTH 10 0
BBX 8 12 1 0
BITMAP
22
22
1C
00
3C
66
C3
C3
C3
C3
66
3C
ENDCHAR
STARTCHAR Ohungarumlaut
ENCODING 336
SWIDTH 762 0
DWIDTH 13 0
BBX 11 16 1 0
BITMAP
0B00
0A00
1200
0000
0E00
3180
60C0
4040
C060
C060
C060
C060
4040
60C0
3180
0E00
ENDCHAR
STARTCHAR ohungarumlaut
ENCODING 337
SWIDTH 577 0
DWIDTH 10 0
BBX 8 12 1 0
BITMAP
16
14
24
00
3C
66
C3
C3
C3
C3
66
3C
ENDCHAR
STARTCHAR OE
ENCODING 338
SWIDTH 1025 0
DWIDTH 17 0
BBX 16 12 1 0
BITMAP
0FFE
30C6
60C2
60C0
C0C4
C0C4
C0FC
C0C4
40C0
60C1
30C2
0FFE
ENDCHAR
STARTCHAR oe
ENCODING 339
SWIDTH 882 0
DWIDTH 15 0
BBX 13 8 1 0
BITMAP
3CE0
6710
C318
C3F8
C300
C308
6790
3CE0
ENDCHAR
STARTCHAR Racute
ENCODING 340
SWIDTH 644 0
DWIDTH 11 0
BBX 9 16 1 0
BITMAP
0600
0C00
1000
0000
FC00
6600
6300
6300
6300
6600
7800
6600
6200
6300
6300
F180
ENDCHAR
STARTCHAR racute
ENCODING 341
SWIDTH 389 0
DWIDTH 6 0
BBX 6 12 1 0
BITMAP
0C
18
20
00
6C
FC
60
60
60
60
60
F0
ENDCHAR
STARTCHAR Rcommaaccent
ENCODING 342
SWIDTH 644 0
DWIDTH 11 0
BBX 9 18 1 -6
BITMAP
FC00
6600
6300
6300
6300
6600
7800
6600
6200
6300
6300
F180
0000
0800
0C00
0C00
0800
1000
ENDCHAR
STARTCHAR rcommaaccent
ENCODING 343
SWIDTH 389 0
DWIDTH 6 0
BBX 6 14 1 -6
BITMAP
6C
FC
60
60
60
60
60
F0
00
20
30
30
20
40
ENDCHAR
STARTCHAR Rcaron
ENCODING 344
SWIDTH 644 0
DWIDTH 11 0
BBX 9 16 1 0
BITMAP
2200
1C00
0800
0000
FC00
6600
6300
6300
6300
6600
7800
6600
6200
6300
6300
F180
ENDCHAR
STARTCHAR rcaron
ENCODING 345
SWIDTH 389 0
DWIDTH 6 0
BBX 6 12 1 0
BITMAP
44
38
10
00
6C
FC
60
60
60
60
60
F0
ENDCHAR
STARTCHAR Sacute
ENCODING 346
SWIDTH 541 0
DWIDTH 9 0
BBX 8 16 1 0
BITMAP
06
0C
10
00
3C
46
C2
C0
E0
78
1E
03
83
83
C6
3C
ENDCHAR
STARTCHAR sacute
ENCODING 347
SWIDTH 436 0
DWIDTH 7 0
BBX 6 12 1 0
BITMAP
18
30
40
00
30
C8
C0
70
18
8C
C8
70
ENDCHAR
STARTCHAR Scircumflex
ENCODING 348
SWIDTH 541 0
DWIDTH 9 0
BBX 8 16 1 0
BITMAP
10
28
44
00
3C
46
C2
C0
E0
78
1E
03
83
83
C6
3C
ENDCHAR
STARTCHAR scircumflex
ENCODING 349
SWIDTH 436 0
DWIDTH 7 0
BBX 6 12 1 0
BITMAP
20
50
88
00
30
C8
C0
70
18
8C
C8
70
ENDCHAR
STARTCHAR Scedilla
ENCODING 350
SWIDTH 541 0
DWIDTH 9 0
BBX 8 16 1 -4
BITMAP
3C
46
C2
C0
E0
78
1E
03
83
83
C6
3C
08
18
0C
18
ENDCHAR
STARTCHAR scedilla
ENCODING 351
SWIDTH 436 0
DWIDTH 7 0
BBX 6 12 1 -4
BITMAP
30
C8
C0
70
18
8C
C8
70
10
30
18
30
ENDCHAR
STARTCHAR Scaron
ENCODING 352
SWIDTH 541 0
DWIDTH 9 0
BBX 8 15 1 0
BITMAP
64
38
00
3C
46
C2
C0
E0
78
1E
07
83
83
C6
3C
ENDCHAR
STARTCHAR scaron
ENCODING 353
SWIDTH 436 0
DWIDTH 7 0
BBX 6 12 1 0
BITMAP
88
70
20
00
30
C8
C0
70
18
8C
C8
70
ENDCHAR
STARTCHAR Tcommaaccent
ENCODING 354
SWIDTH 621 0
DWIDTH 10 0
BBX 10 16 0 -4
BITMAP
FFC0
8C40
8C40
0C00
0C00
0C00
0C00
0C00
0C00
0C00
0C00
3F00
0400
0C00
0600
0C00
ENDCHAR
STARTCHAR tcommaaccent
ENCODING 355
SWIDTH 344 0
DWIDTH 6 0
BBX 5 14 0 -4
BITMAP
20
20
F8
60
60
60
60
60
60
38
20
60
30
60
ENDCHAR
STARTCHAR Tcaron
ENCODING 356
SWIDTH 621 0
DWIDTH 10 0
BBX 10 16 0 0
BITMAP
1100
0E00
0400
0000
FFC0
8C40
8C40
0C00
0C00
0C00
0C00
0C00
0C00
0C00
0C00
3F00
ENDCHAR
STARTCHAR tcaron
ENCODING 357
SWIDTH 605 0
DWIDTH 11 0
BBX 9 12 0 0
BITMAP
0180
0080
2080
2100
F800
6000
6000
6000
6000
6000
6000
3800
ENDCHAR
STARTCHAR Tbar
ENCODING 358
SWIDTH 621 0
DWIDTH 10 0
BBX 10 12 0 0
BITMAP
FFC0
8C40
8C40
0C00
0C00
1E00
0C00
0C00
0C00
0C00
0C00
3F00
ENDCHAR
STARTCHAR tbar
ENCODING 359
SWIDTH 344 0
DWIDTH 6 0
BBX 5 10 0 0
BITMAP
20
20
F8
60
60
78
60
60
60
38
ENDCHAR
STARTCHAR Utilde
ENCODING 360
SWIDTH 791 0
DWIDTH 13 0
BBX 11 15 1 0
BITMAP
0C80
1300
0000
F1E0
60C0
60C0
60C0
60C0
60C0
60C0
60C0
60C0
2080
3180
0E00
ENDCHAR
STARTCHAR utilde
ENCODING 361
SWIDTH 606 0
DWIDTH 10 0
BBX 10 11 0 0
BITMAP
1900
2600
0000
6180
E380
6180
6180
6180
6180
6380
3DC0
ENDCHAR
STARTCHAR Umacron
ENCODING 362
SWIDTH 791 0
DWIDTH 13 0
BBX 11 14 1 0
BITMAP
1F00
0000
F1E0
60C0
60C0
60C0
60C0
60C0
60C0
60C0
60C0
2080
3180
0E00
ENDCHAR
STARTCHAR umacron
ENCODING 363
SWIDTH 606 0
DWIDTH 10 0
BBX 10 10 0 0
BITMAP
3E00
0000
6180
E380
6180
6180
6180
6180
6380
3DC0
ENDCHAR
STARTCHAR Ubreve
ENCODING 364
SWIDTH 791 0
DWIDTH 13 0
BBX 11 16 1 0
BITMAP
1100
1100
0E00
0000
F1E0
60C0
60C0
60C0
60C0
60C0
60C0
60C0
60C0
2080
3180
0E00
ENDCHAR
STARTCHAR ubreve
ENCODING 365
SWIDTH 606 0
DWIDTH 10 0
BBX 10 12 0 0
BITMAP
2200
2200
1C00
0000
6180
E380
6180
6180
6180
6180
6380
3DC0
ENDCHAR
STARTCHAR Uring
ENCODING 366
SWIDTH 791 0
DWIDTH 13 0
BBX 11 17 1 0
BITMAP
0400
0A00
0A00
0400
0000
F1E0
60C0
60C0
60C0
60C0
60C0
60C0
60C0
60C0
2080
3180
0E00
ENDCHAR
STARTCHAR uring
ENCODING 367
SWIDTH 606 0
DWIDTH 10 0
BBX 10 13 0 0
BITMAP
0800
1400
1400
0800
0000
6180
E380
6180
6180
6180
6180
6380
3DC0
ENDCHAR
STARTCHAR Uhungarumlaut
ENCODING 368
SWIDTH 791 0
DWIDTH 13 0
BBX 11 16 1 0
BITMAP
0B00
0A00
1200
0000
F1E0
60C0
60C0
60C0
60C0
60C0
60C0
60C0
60C0
2080
3180
0E00
ENDCHAR
STARTCHAR uhungarumlaut
ENCODING 369
SWIDTH 606 0
DWIDTH 10 0
BBX 10 12 0 0
BITMAP
0B00
0A00
1200
0000
6180
E380
6180
6180
6180
6180
6380
3DC0
ENDCHAR
STARTCHAR Uogonek
ENCODING 370
SWIDTH 791 0
DWIDTH 13 0
BBX 11 16 1 -4
BITMAP
F1E0
60C0
60C0
60C0
60C0
60C0
60C0
60C0
60C0
2080
3180
0E00
0400
0800
0800
0E00
ENDCHAR
STARTCHAR uogonek
ENCODING 371
SWIDTH 606 0
DWIDTH 10 0
BBX 10 12 0 -4
BITMAP
6180
E380
6180
6180
6180
6180
6380
3DC0
0400
0800
0800
0E00
ENDCHAR
STARTCHAR Wcircumflex
ENCODING 372
SWIDTH 940 0
DWIDTH 16 0
BBX 16 16 0 0
BITMAP
0080
0140
0220
0000
F00F
6082
2186
21C4
3144
3244
124C
1228
1A28
1C28
0C38
0C10
ENDCHAR
STARTCHAR wcircumflex
ENCODING 373
SWIDTH 768 0
DWIDTH 13 0
BBX 13 12 0 0
BITMAP
0200
0500
0880
0000
F338
6310
6390
35A0
35A0
34E0
18C0
18C0
ENDCHAR
STARTCHAR Ycircumflex
ENCODING 374
SWIDTH 588 0
DWIDTH 10 0
BBX 10 16 0 0
BITMAP
0800
1400
2200
0000
F1C0
6080
2100
3100
1A00
1A00
0C00
0C00
0C00
0C00
0C00
1F00
ENDCHAR
STARTCHAR ycircumflex
ENCODING 375
SWIDTH 506 0
DWIDTH 8 0
BBX 9 16 0 -4
BITMAP
0800
1400
2200
0000
F380
6100
2100
3200
3200
1A00
1C00
0C00
0800
0800
5000
7000
ENDCHAR
STARTCHAR Ydieresis
ENCODING 376
SWIDTH 588 0
DWIDTH 10 0
BBX 10 14 0 0
BITMAP
3300
3200
F0C0
6080
2100
3100
1A00
1A00
0C00
0C00
0C00
0C00
0C00
1F00
ENDCHAR
STARTCHAR Zacute
ENCODING 377
SWIDTH 610 0
DWIDTH 10 0
BBX 10 16 0 0
BITMAP
0180
0300
0400
0000
7FC0
41C0
4180
0300
0600
0E00
0C00
1800
3000
3040
6040
FFC0
ENDCHAR
STARTCHAR zacute
ENCODING 378
SWIDTH 480 0
DWIDTH 8 0
BBX 8 12 0 0
BITMAP
06
0C
10
00
7F
47
46
0C
18
31
61
FF
ENDCHAR
STARTCHAR Zdotaccent
ENCODING 379
SWIDTH 610 0
DWIDTH 10 0
BBX 10 15 0 0
BITMAP
0600
0600
0000
7FC0
41C0
4180
0300
0600
0E00
0C00
1800
3000
3040
6040
FFC0
ENDCHAR
STARTCHAR zdotaccent
ENCODING 380
SWIDTH 480 0
DWIDTH 8 0
BBX 8 11 0 0
BITMAP
18
18
00
7F
47
46
0C
18
31
61
FF
ENDCHAR
STARTCHAR Zcaron
ENCODING 381
SWIDTH 610 0
DWIDTH 10 0
BBX 10 15 0 0
BITMAP
1100
0E00
0000
7FC0
41C0
4180
0300
0600
0E00
0C00
1800
3000
3040
6040
FFC0
ENDCHAR
STARTCHAR zcaron
ENCODING 382
SWIDTH 480 0
DWIDTH 8 0
BBX 8 12 0 0
BITMAP
22
1C
08
00
7F
47
46
0C
18
31
61
FF
ENDCHAR
STARTCHAR uni0186
ENCODING 390
SWIDTH 684 0
DWIDTH 11 0
BBX 10 12 1 0
BITMAP
3C00
C300
8180
80C0
00C0
00C0
00C0
00C0
0080
8180
C300
7C00
ENDCHAR
STARTCHAR uni0189
ENCODING 393
SWIDTH 785 0
DWIDTH 13 0
BBX 12 12 0 0
BITMAP
7F00
30C0
3060
3070
3030
3030
FC30
3030
3020
3060
30C0
7F00
ENDCHAR
STARTCHAR uni018E
ENCODING 398
SWIDTH 606 0
DWIDTH 10 0
BBX 9 12 1 0
BITMAP
7F80
4300
8300
0300
2300
3F00
2300
2300
0300
4300
6300
7F80
ENDCHAR
STARTCHAR florin
ENCODING 402
SWIDTH 530 0
DWIDTH 9 0
BBX 9 14 0 -2
BITMAP
0300
0580
0C00
0C00
0800
3F00
0800
1800
1800
1800
1000
1000
9000
6000
ENDCHAR
STARTCHAR uni0197
ENCODING 407
SWIDTH 349 0
DWIDTH 6 0
BBX 4 12 1 0
BITMAP
F0
60
60
60
60
F0
60
60
60
60
60
F0
ENDCHAR
STARTCHAR uni019A
ENCODING 410
SWIDTH 279 0
DWIDTH 5 0
BBX 4 12 0 0
BITMAP
60
E0
60
60
60
F0
60
60
60
60
60
F0
ENDCHAR
STARTCHAR uni019D
ENCODING 413
SWIDTH 780 0
DWIDTH 13 0
BBX 12 16 0 -4
BITMAP
70F0
3820
3820
2C20
2620
2620
2320
21A0
31A0
30E0
3060
3060
3000
2000
6000
8000
ENDCHAR
STARTCHAR uni019F
ENCODING 415
SWIDTH 762 0
DWIDTH 13 0
BBX 11 12 1 0
BITMAP
0E00
3180
60C0
4040
C060
FFE0
C060
C060
4040
60C0
3180
0E00
ENDCHAR
STARTCHAR Ohorn
ENCODING 416
SWIDTH 762 0
DWIDTH 13 0
BBX 12 12 1 0
BITMAP
0E30
3190
60D0
4060
C060
C060
C060
C060
4040
60C0
3180
0E00
ENDCHAR
STARTCHAR ohorn
ENCODING 417
SWIDTH 577 0
DWIDTH 10 0
BBX 10 8 1 0
BITMAP
3CC0
6640
C340
C380
C300
C300
6600
3C00
ENDCHAR
STARTCHAR uni01A7
ENCODING 423
SWIDTH 541 0
DWIDTH 9 0
BBX 8 12 1 0
BITMAP
3C
62
43
03
07
1E
78
C0
C1
C1
63
3C
ENDCHAR
STARTCHAR uni01A8
ENCODING 424
SWIDTH 436 0
DWIDTH 7 0
BBX 6 8 1 0
BITMAP
30
4C
0C
38
60
C4
4C
38
ENDCHAR
STARTCHAR uni01AE
ENCODING 430
SWIDTH 621 0
DWIDTH 10 0
BBX 10 16 0 -4
BITMAP
FFC0
8C40
8C40
0C00
0C00
0C00
0C00
0C00
0C00
0C00
0C00
0C00
0C00
0400
0600
0100
ENDCHAR
STARTCHAR Uhorn
ENCODING 431
SWIDTH 791 0
DWIDTH 13 0
BBX 12 12 1 0
BITMAP
F1F0
60D0
60D0
60E0
60C0
60C0
60C0
60C0
60C0
2080
3180
0E00
ENDCHAR
STARTCHAR uhorn
ENCODING 432
SWIDTH 606 0
DWIDTH 10 0
BBX 11 8 0 0
BITMAP
61E0
E3A0
61A0
61C0
6180
6180
6380
3DC0
ENDCHAR
STARTCHAR uni01B5
ENCODING 437
SWIDTH 610 0
DWIDTH 10 0
BBX 10 12 0 0
BITMAP
7FC0
41C0
4180
0300
0600
1E00
0C00
1800
3000
3040
6040
FFC0
ENDCHAR
STARTCHAR uni01B6
ENCODING 438
SWIDTH 480 0
DWIDTH 8 0
BBX 8 8 0 0
BITMAP
7F
47
46
3C
18
31
61
FF
ENDCHAR
STARTCHAR uni01BB
ENCODING 443
SWIDTH 530 0
DWIDTH 9 0
BBX 7 11 1 0
BITMAP
38
44
C6
06
06
FE
18
10
60
42
FE
ENDCHAR
STARTCHAR uni01BC
ENCODING 444
SWIDTH 530 0
DWIDTH 9 0
BBX 8 11 0 0
BITMAP
7E
40
40
40
7C
46
03
03
83
C6
3C
ENDCHAR
STARTCHAR uni01C0
ENCODING 448
SWIDTH 228 0
DWIDTH 4 0
BBX 1 12 1 0
BITMAP
80
80
80
80
80
80
80
80
80
80
80
80
ENDCHAR
STARTCHAR uni01C2
ENCODING 450
SWIDTH 570 0
DWIDTH 9 0
BBX 8 12 1 -2
BITMAP
08
08
08
08
FF
08
08
FF
08
08
08
08
ENDCHAR
STARTCHAR uni01C3
ENCODING 451
SWIDTH 242 0
DWIDTH 4 0
BBX 2 12 1 0
BITMAP
C0
C0
C0
C0
C0
80
80
80
00
00
C0
C0
ENDCHAR
STARTCHAR uni01CD
ENCODING 461
SWIDTH 635 0
DWIDTH 11 0
BBX 11 16 0 0
BITMAP
1100
0E00
0400
0000
0400
0E00
0E00
0A00
1300
1100
1F00
2180
2180
2080
40C0
F1E0
ENDCHAR
STARTCHAR uni01CE
ENCODING 462
SWIDTH 523 0
DWIDTH 9 0
BBX 7 12 1 0
BITMAP
44
38
10
00
38
CC
8C
3C
CC
CC
CC
7E
ENDCHAR
STARTCHAR uni01CF
ENCODING 463
SWIDTH 349 0
DWIDTH 6 0
BBX 5 16 1 0
BITMAP
88
70
20
00
F0
60
60
60
60
60
60
60
60
60
60
F0
ENDCHAR
STARTCHAR uni01D0
ENCODING 464
SWIDTH 291 0
DWIDTH 5 0
BBX 5 12 0 0
BITMAP
88
70
20
00
30
70
30
30
30
30
30
78
ENDCHAR
STARTCHAR uni01D1
ENCODING 465
SWIDTH 762 0
DWIDTH 13 0
BBX 11 16 1 0
BITMAP
1100
0E00
0400
0000
0E00
3180
60C0
4040
C060
C060
C060
C060
4040
60C0
3180
0E00
ENDCHAR
STARTCHAR uni01D2
ENCODING 466
SWIDTH 577 0
DWIDTH 10 0
BBX 8 12 1 0
BITMAP
22
1C
08
00
3C
66
C3
C3
C3
C3
66
3C
ENDCHAR
STARTCHAR uni01D3
ENCODING 467
SWIDTH 791 0
DWIDTH 13 0
BBX 11 16 1 0
BITMAP
1100
0E00
0400
0000
F1E0
60C0
60C0
60C0
60C0
60C0
60C0
60C0
60C0
2080
3180
0E00
ENDCHAR
STARTCHAR uni01D4
ENCODING 468
SWIDTH 606 0
DWIDTH 10 0
BBX 10 12 0 0
BITMAP
2200
1C00
0800
0000
6180
E380
6180
6180
6180
6180
6380
3DC0
ENDCHAR
STARTCHAR uni01D5
ENCODING 469
SWIDTH 791 0
DWIDTH 13 0
BBX 11 16 1 0
BITMAP
1F00
0000
1B00
0A00
E0E0
60C0
60C0
60C0
60C0
60C0
60C0
60C0
60C0
2080
3180
0E00
ENDCHAR
STARTCHAR uni01D6
ENCODING 470
SWIDTH 606 0
DWIDTH 10 0
BBX 10 13 0 0
BITMAP
1F00
0000
3300
3300
0000
6180
E380
6180
6180
6180
6180
6380
3DC0
ENDCHAR
STARTCHAR uni01D7
ENCODING 471
SWIDTH 791 0
DWIDTH 13 0
BBX 11 18 1 0
BITMAP
0180
0300
0400
0000
1B00
0A00
E0E0
60C0
60C0
60C0
60C0
60C0
60C0
60C0
60C0
2080
3180
0E00
ENDCHAR
STARTCHAR uni01D8
ENCODING 472
SWIDTH 606 0
DWIDTH 10 0
BBX 10 15 0 0
BITMAP
0300
0600
0800
0000
3300
3300
0000
6180
E380
6180
6180
6180
6180
6380
3DC0
ENDCHAR
STARTCHAR uni01D9
ENCODING 473
SWIDTH 791 0
DWIDTH 13 0
BBX 11 18 1 0
BITMAP
1100
0E00
0400
0000
1B00
0A00
E0E0
60C0
60C0
60C0
60C0
60C0
60C0
60C0
60C0
2080
3180
0E00
ENDCHAR
STARTCHAR uni01DA
ENCODING 474
SWIDTH 606 0
DWIDTH 10 0
BBX 10 15 0 0
BITMAP
1100
0E00
0400
0000
3300
3300
0000
6180
E380
6180
6180
6180
6180
6380
3DC0
ENDCHAR
STARTCHAR uni01DB
ENCODING 475
SWIDTH 791 0
DWIDTH 13 0
BBX 11 18 1 0
BITMAP
1800
0C00
0200
0000
1B00
0A00
E0E0
60C0
60C0
60C0
60C0
60C0
60C0
60C0
60C0
2080
3180
0E00
ENDCHAR
STARTCHAR uni01DC
ENCODING 476
SWIDTH 606 0
DWIDTH 10 0
BBX 10 15 0 0
BITMAP
3000
1800
0400
0000
3300
3300
0000
6180
E380
6180
6180
6180
6180
6380
3DC0
ENDCHAR
STARTCHAR uni01DD
ENCODING 477
SWIDTH 514 0
DWIDTH 9 0
BBX 7 8 1 0
BITMAP
38
4C
86
06
FE
C6
44
38
ENDCHAR
STARTCHAR uni01DE
ENCODING 478
SWIDTH 635 0
DWIDTH 11 0
BBX 11 16 0 0
BITMAP
1F00
0000
1B00
1B00
0000
0600
0E00
0A00
1300
1100
1F00
2180
2180
4080
40C0
F1E0
ENDCHAR
STARTCHAR uni01DF
ENCODING 479
SWIDTH 523 0
DWIDTH 9 0
BBX 7 13 1 0
BITMAP
7C
00
6C
6C
00
38
CC
8C
3C
CC
CC
CC
7E
ENDCHAR
STARTCHAR uni01E0
ENCODING 480
SWIDTH 635 0
DWIDTH 11 0
BBX 11 17 0 0
BITMAP
1F00
0000
0600
0600
0000
0400
0E00
0E00
0A00
1300
1100
1F00
2180
2180
2080
40C0
F1E0
ENDCHAR
STARTCHAR uni01E1
ENCODING 481
SWIDTH 523 0
DWIDTH 9 0
BBX 7 13 1 0
BITMAP
7C
00
30
30
00
38
CC
8C
3C
CC
CC
CC
7E
ENDCHAR
STARTCHAR uni01E2
ENCODING 482
SWIDTH 876 0
DWIDTH 15 0
BBX 16 14 -1 0
BITMAP
03E0
0000
07FE
0386
0582
0580
0984
0984
1FFC
1184
2180
2181
4182
E3FE
ENDCHAR
STARTCHAR uni01E3
ENCODING 483
SWIDTH 797 0
DWIDTH 13 0
BBX 12 10 1 0
BITMAP
1F00
0000
3BC0
CE20
CC30
1FF0
6C00
CC10
CE20
73C0
ENDCHAR
STARTCHAR uni01E4
ENCODING 484
SWIDTH 734 0
DWIDTH 12 0
BBX 11 12 1 0
BITMAP
0F80
30C0
6040
4000
C000
C000
C3E0
C0C0
40C0
61E0
30C0
0F00
ENDCHAR
STARTCHAR uni01E5
ENCODING 485
SWIDTH 520 0
DWIDTH 9 0
BBX 9 12 0 -4
BITMAP
1D80
2200
6300
6300
3C00
2000
6000
3F00
4180
FF80
4300
3C00
ENDCHAR
STARTCHAR Gcaron
ENCODING 486
SWIDTH 734 0
DWIDTH 12 0
BBX 11 16 1 0
BITMAP
1100
0E00
0400
0000
0F80
30C0
6040
4000
C000
C000
C3E0
C0C0
40C0
60C0
30C0
0F00
ENDCHAR
STARTCHAR gcaron
ENCODING 487
SWIDTH 520 0
DWIDTH 9 0
BBX 9 16 0 -4
BITMAP
2200
1C00
0800
0000
1D80
2200
6300
6300
3C00
2000
6000
3F00
4180
C180
4300
3C00
ENDCHAR
STARTCHAR uni01E8
ENCODING 488
SWIDTH 658 0
DWIDTH 11 0
BBX 10 16 1 0
BITMAP
2200
1C00
0800
0000
F3C0
6100
6200
6400
6800
7800
7800
6C00
6600
6300
6180
F0C0
ENDCHAR
STARTCHAR uni01E9
ENCODING 489
SWIDTH 524 0
DWIDTH 9 0
BBX 9 16 0 0
BITMAP
8800
7000
2000
0000
6000
E000
6000
6000
6300
6400
6800
7800
7800
6C00
6700
F180
ENDCHAR
STARTCHAR uni01EA
ENCODING 490
SWIDTH 762 0
DWIDTH 13 0
BBX 11 16 1 -4
BITMAP
0E00
3180
60C0
4040
C060
C060
C060
C060
4040
60C0
3180
0E00
0400
0800
0800
0E00
ENDCHAR
STARTCHAR uni01EB
ENCODING 491
SWIDTH 577 0
DWIDTH 10 0
BBX 8 12 1 -4
BITMAP
3C
66
C3
C3
C3
C3
66
3C
08
10
10
1C
ENDCHAR
STARTCHAR uni01EC
ENCODING 492
SWIDTH 762 0
DWIDTH 13 0
BBX 11 18 1 -4
BITMAP
1F00
0000
0E00
3180
60C0
4040
C060
C060
C060
C060
4040
60C0
3180
0E00
0400
0800
0800
0E00
ENDCHAR
STARTCHAR uni01ED
ENCODING 493
SWIDTH 577 0
DWIDTH 10 0
BBX 8 14 1 -4
BITMAP
3E
00
3C
66
C3
C3
C3
C3
66
3C
08
10
10
1C
ENDCHAR
STARTCHAR uni01F0
ENCODING 496
SWIDTH 280 0
DWIDTH 5 0
BBX 5 16 0 -4
BITMAP
88
70
20
00
30
70
30
30
30
30
30
30
30
20
60
80
ENDCHAR
STARTCHAR uni01F4
ENCODING 500
SWIDTH 734 0
DWIDTH 12 0
BBX 11 16 1 0
BITMAP
0180
0300
0400
0000
0F80
30C0
6040
4000
C000
C000
C3E0
C0C0
40C0
60C0
30C0
0F00
ENDCHAR
STARTCHAR uni01F5
ENCODING 501
SWIDTH 520 0
DWIDTH 9 0
BBX 9 16 0 -4
BITMAP
0300
0600
0800
0000
1D80
2200
6300
6300
3C00
2000
6000
3F00
4180
C180
4300
3C00
ENDCHAR
STARTCHAR uni01F8
ENCODING 504
SWIDTH 780 0
DWIDTH 13 0
BBX 11 16 1 0
BITMAP
3000
1800
0400
0000
E1E0
7040
7040
5840
4C40
4C40
4640
4340
4340
41C0
40C0
F0C0
ENDCHAR
STARTCHAR uni01F9
ENCODING 505
SWIDTH 619 0
DWIDTH 10 0
BBX 9 12 1 0
BITMAP
6000
3000
0800
0000
6E00
F300
6300
6300
6300
6300
6300
F780
ENDCHAR
STARTCHAR Aringacute
ENCODING 506
SWIDTH 627 0
DWIDTH 10 0
BBX 11 19 0 0
BITMAP
0300
0600
0800
0000
0C00
1200
1200
0C00
0C00
1600
1600
1200
2300
3F00
2180
2180
4080
40C0
E1E0
ENDCHAR
STARTCHAR aringacute
ENCODING 507
SWIDTH 523 0
DWIDTH 9 0
BBX 7 17 1 0
BITMAP
06
0C
10
00
10
28
28
10
00
38
CC
8C
3C
CC
CC
CC
7E
ENDCHAR
STARTCHAR AEacute
ENCODING 508
SWIDTH 876 0
DWIDTH 15 0
BBX 16 16 -1 0
BITMAP
0030
0060
0080
0000
07FE
0386
0582
0580
0984
0984
1FFC
1184
2180
2181
4182
E3FE
ENDCHAR
STARTCHAR aeacute
ENCODING 509
SWIDTH 797 0
DWIDTH 13 0
BBX 12 12 1 0
BITMAP
0180
0300
0400
0000
3BC0
CE20
CC30
1FF0
6C00
CC10
CE20
73C0
ENDCHAR
STARTCHAR Oslashacute
ENCODING 510
SWIDTH 762 0
DWIDTH 13 0
BBX 11 17 1 -1
BITMAP
0180
0300
0400
0000
0E40
3180
61C0
4140
C260
C460
C460
C860
5040
70C0
3180
4E00
4000
ENDCHAR
STARTCHAR oslashacute
ENCODING 511
SWIDTH 577 0
DWIDTH 10 0
BBX 8 12 1 0
BITMAP
06
0C
10
00
3A
66
CA
CB
D3
E3
66
5C
ENDCHAR
STARTCHAR uni0200
ENCODING 512
SWIDTH 635 0
DWIDTH 11 0
BBX 11 16 0 0
BITMAP
1A00
0A00
0900
0000
0400
0E00
0E00
0A00
1300
1100
1F00
2180
2180
2080
40C0
F1E0
ENDCHAR
STARTCHAR uni0201
ENCODING 513
SWIDTH 523 0
DWIDTH 9 0
BBX 7 12 1 0
BITMAP
68
28
24
00
38
CC
8C
3C
CC
CC
CC
7E
ENDCHAR
STARTCHAR uni0202
ENCODING 514
SWIDTH 635 0
DWIDTH 11 0
BBX 11 16 0 0
BITMAP
0E00
1100
1100
0000
0400
0E00
0E00
0A00
1300
1100
1F00
2180
2180
2080
40C0
F1E0
ENDCHAR
STARTCHAR uni0203
ENCODING 515
SWIDTH 523 0
DWIDTH 9 0
BBX 7 12 1 0
BITMAP
38
44
44
00
38
CC
8C
3C
CC
CC
CC
7E
ENDCHAR
STARTCHAR uni0204
ENCODING 516
SWIDTH 606 0
DWIDTH 10 0
BBX 9 16 1 0
BITMAP
6800
2800
2400
0000
FF00
6300
6100
6000
6200
6200
7E00
6200
6000
6080
6100
FF00
ENDCHAR
STARTCHAR uni0205
ENCODING 517
SWIDTH 514 0
DWIDTH 9 0
BBX 7 12 1 0
BITMAP
68
28
24
00
38
44
C6
FE
C0
C2
64
38
ENDCHAR
STARTCHAR uni0206
ENCODING 518
SWIDTH 606 0
DWIDTH 10 0
BBX 9 16 1 0
BITMAP
1C00
2200
2200
0000
FF00
6300
6100
6000
6200
6200
7E00
6200
6000
6080
6100
FF00
ENDCHAR
STARTCHAR uni0207
ENCODING 519
SWIDTH 514 0
DWIDTH 9 0
BBX 7 12 1 0
BITMAP
38
44
44
00
38
44
C6
FE
C0
C2
64
38
ENDCHAR
STARTCHAR uni0208
ENCODING 520
SWIDTH 349 0
DWIDTH 6 0
BBX 5 16 0 0
BITMAP
D0
50
48
00
78
30
30
30
30
30
30
30
30
30
30
78
ENDCHAR
STARTCHAR uni0209
ENCODING 521
SWIDTH 291 0
DWIDTH 5 0
BBX 5 12 0 0
BITMAP
D0
50
48
00
30
70
30
30
30
30
30
78
ENDCHAR
STARTCHAR uni020A
ENCODING 522
SWIDTH 349 0
DWIDTH 6 0
BBX 5 16 1 0
BITMAP
70
88
88
00
F0
60
60
60
60
60
60
60
60
60
60
F0
ENDCHAR
STARTCHAR uni020B
ENCODING 523
SWIDTH 291 0
DWIDTH 5 0
BBX 5 12 0 0
BITMAP
70
88
88
00
30
70
30
30
30
30
30
78
ENDCHAR
STARTCHAR uni020C
ENCODING 524
SWIDTH 762 0
DWIDTH 13 0
BBX 11 16 1 0
BITMAP
1A00
0A00
0900
0000
0E00
3180
60C0
4040
C060
C060
C060
C060
4040
60C0
3180
0E00
ENDCHAR
STARTCHAR uni020D
ENCODING 525
SWIDTH 577 0
DWIDTH 10 0
BBX 8 12 1 0
BITMAP
68
28
24
00
3C
66
C3
C3
C3
C3
66
3C
ENDCHAR
STARTCHAR uni020E
ENCODING 526
SWIDTH 762 0
DWIDTH 13 0
BBX 11 16 1 0
BITMAP
0E00
1100
1100
0000
0E00
3180
60C0
4040
C060
C060
C060
C060
4040
60C0
3180
0E00
ENDCHAR
STARTCHAR uni020F
ENCODING 527
SWIDTH 577 0
DWIDTH 10 0
BBX 8 12 1 0
BITMAP
1C
22
22
00
3C
66
C3
C3
C3
C3
66
3C
ENDCHAR
STARTCHAR uni0210
ENCODING 528
SWIDTH 644 0
DWIDTH 11 0
BBX 9 16 1 0
BITMAP
6800
2800
2400
0000
FC00
6600
6300
6300
6300
6600
7800
6600
6200
6300
6300
F180
ENDCHAR
STARTCHAR uni0211
ENCODING 529
SWIDTH 389 0
DWIDTH 6 0
BBX 6 12 1 0
BITMAP
D0
50
48
00
6C
FC
60
60
60
60
60
F0
ENDCHAR
STARTCHAR uni0212
ENCODING 530
SWIDTH 644 0
DWIDTH 11 0
BBX 9 16 1 0
BITMAP
1C00
2200
2200
0000
FC00
6600
6300
6300
6300
6600
7800
6600
6200
6300
6300
F180
ENDCHAR
STARTCHAR uni0213
ENCODING 531
SWIDTH 389 0
DWIDTH 6 0
BBX 6 12 1 0
BITMAP
38
44
44
00
6C
FC
60
60
60
60
60
F0
ENDCHAR
STARTCHAR uni0214
ENCODING 532
SWIDTH 791 0
DWIDTH 13 0
BBX 11 16 1 0
BITMAP
1A00
0A00
0900
0000
F1E0
60C0
60C0
60C0
60C0
60C0
60C0
60C0
60C0
2080
3180
0E00
ENDCHAR
STARTCHAR uni0215
ENCODING 533
SWIDTH 606 0
DWIDTH 10 0
BBX 10 12 0 0
BITMAP
3400
1400
1200
0000
6180
E380
6180
6180
6180
6180
6380
3DC0
ENDCHAR
STARTCHAR uni0216
ENCODING 534
SWIDTH 791 0
DWIDTH 13 0
BBX 11 16 1 0
BITMAP
0E00
1100
1100
0000
F1E0
60C0
60C0
60C0
60C0
60C0
60C0
60C0
60C0
2080
3180
0E00
ENDCHAR
STARTCHAR uni0217
ENCODING 535
SWIDTH 606 0
DWIDTH 10 0
BBX 10 12 0 0
BITMAP
1C00
2200
2200
0000
6180
E380
6180
6180
6180
6180
6380
3DC0
ENDCHAR
STARTCHAR Scommaaccent
ENCODING 536
SWIDTH 541 0
DWIDTH 9 0
BBX 8 18 1 -6
BITMAP
3C
46
C2
C0
E0
78
1E
03
83
83
C6
3C
00
10
18
18
10
20
ENDCHAR
STARTCHAR scommaaccent
ENCODING 537
SWIDTH 436 0
DWIDTH 7 0
BBX 6 14 1 -6
BITMAP
30
C8
C0
70
18
8C
C8
70
00
20
30
30
20
40
ENDCHAR
STARTCHAR Tcommaaccent
ENCODING 538
SWIDTH 621 0
DWIDTH 10 0
BBX 10 18 0 -6
BITMAP
FFC0
8C40
8C40
0C00
0C00
0C00
0C00
0C00
0C00
0C00
0C00
3F00
0000
0800
0C00
0C00
0800
1000
ENDCHAR
STARTCHAR tcommaaccent
ENCODING 539
SWIDTH 344 0
DWIDTH 6 0
BBX 5 16 0 -6
BITMAP
20
20
F8
60
60
60
60
60
60
38
00
20
30
30
20
40
ENDCHAR
STARTCHAR uni021E
ENCODING 542
SWIDTH 798 0
DWIDTH 13 0
BBX 11 16 1 0
BITMAP
1100
0E00
0400
0000
F1E0
60C0
60C0
60C0
60C0
60C0
7FC0
60C0
60C0
60C0
60C0
F1E0
ENDCHAR
STARTCHAR uni021F
ENCODING 543
SWIDTH 607 0
DWIDTH 10 0
BBX 10 16 0 0
BITMAP
8800
7000
2000
0000
6000
E000
6000
6000
6F00
7180
6180
6180
6180
6180
6180
F3C0
ENDCHAR
STARTCHAR uni0226
ENCODING 550
SWIDTH 635 0
DWIDTH 11 0
BBX 11 15 0 0
BITMAP
0600
0600
0000
0400
0E00
0E00
0A00
1300
1100
1F00
2180
2180
2080
40C0
F1E0
ENDCHAR
STARTCHAR uni0227
ENCODING 551
SWIDTH 523 0
DWIDTH 9 0
BBX 7 11 1 0
BITMAP
30
30
00
38
CC
8C
3C
CC
CC
CC
7E
ENDCHAR
STARTCHAR uni0228
ENCODING 552
SWIDTH 606 0
DWIDTH 10 0
BBX 9 16 1 -4
BITMAP
FF00
6300
6100
6000
6200
6200
7E00
6200
6000
6080
6100
FF00
0800
1800
0C00
1800
ENDCHAR
STARTCHAR uni0229
ENCODING 553
SWIDTH 514 0
DWIDTH 9 0
BBX 7 12 1 -4
BITMAP
38
44
C6
FE
C0
C2
64
38
10
30
18
30
ENDCHAR
STARTCHAR uni022A
ENCODING 554
SWIDTH 762 0
DWIDTH 13 0
BBX 11 16 1 0
BITMAP
1F00
0000
1B00
1100
0400
3B80
60C0
4040
C060
C060
C060
C060
4040
60C0
3180
0E00
ENDCHAR
STARTCHAR uni022B
ENCODING 555
SWIDTH 577 0
DWIDTH 10 0
BBX 8 13 1 0
BITMAP
3E
00
66
66
00
3C
66
C3
C3
C3
C3
66
3C
ENDCHAR
STARTCHAR uni022C
ENCODING 556
SWIDTH 762 0
DWIDTH 13 0
BBX 11 16 1 0
BITMAP
1F00
0000
1880
2700
0E00
3180
60C0
4040
C060
C060
C060
C060
4040
60C0
3180
0E00
ENDCHAR
STARTCHAR uni022D
ENCODING 557
SWIDTH 577 0
DWIDTH 10 0
BBX 8 14 1 0
BITMAP
3E
00
02
3E
40
00
3C
66
C3
C3
C3
C3
66
3C
ENDCHAR
STARTCHAR uni022E
ENCODING 558
SWIDTH 762 0
DWIDTH 13 0
BBX 11 15 1 0
BITMAP
0600
0600
0000
0E00
3180
60C0
4040
C060
C060
C060
C060
4040
60C0
3180
0E00
ENDCHAR
STARTCHAR uni022F
ENCODING 559
SWIDTH 577 0
DWIDTH 10 0
BBX 8 11 1 0
BITMAP
18
18
00
3C
66
C3
C3
C3
C3
66
3C
ENDCHAR
STARTCHAR uni0230
ENCODING 560
SWIDTH 762 0
DWIDTH 13 0
BBX 11 17 1 0
BITMAP
1F00
0000
0600
0600
0000
0E00
3180
60C0
4040
C060
C060
C060
C060
4040
60C0
3180
0E00
ENDCHAR
STARTCHAR uni0231
ENCODING 561
SWIDTH 577 0
DWIDTH 10 0
BBX 8 13 1 0
BITMAP
3E
00
18
18
00
3C
66
C3
C3
C3
C3
66
3C
ENDCHAR
STARTCHAR uni0232
ENCODING 562
SWIDTH 588 0
DWIDTH 10 0
BBX 10 14 0 0
BITMAP
3E00
0000
F1C0
6080
2100
3100
1A00
1A00
0C00
0C00
0C00
0C00
0C00
1F00
ENDCHAR
STARTCHAR uni0233
ENCODING 563
SWIDTH 506 0
DWIDTH 8 0
BBX 9 14 0 -4
BITMAP
3E00
0000
F380
6100
2100
3200
3200
1A00
1C00
0C00
0800
0800
5000
7000
ENDCHAR
STARTCHAR uni0250
ENCODING 592
SWIDTH 523 0
DWIDTH 9 0
BBX 7 8 1 0
BITMAP
FC
66
66
66
78
62
66
38
ENDCHAR
STARTCHAR uni0254
ENCODING 596
SWIDTH 496 0
DWIDTH 8 0
BBX 7 8 1 0
BITMAP
78
CC
86
06
06
06
8C
78
ENDCHAR
STARTCHAR uni0258
ENCODING 600
SWIDTH 514 0
DWIDTH 9 0
BBX 7 8 1 0
BITMAP
38
44
C6
FE
06
86
4C
38
ENDCHAR
STARTCHAR uni0259
ENCODING 601
SWIDTH 514 0
DWIDTH 9 0
BBX 7 8 1 0
BITMAP
38
4C
86
06
FE
C6
44
38
ENDCHAR
STARTCHAR uni025F
ENCODING 607
SWIDTH 319 0
DWIDTH 5 0
BBX 6 12 1 -4
BITMAP
3C
18
18
18
18
18
18
7C
18
18
D0
60
ENDCHAR
STARTCHAR uni0265
ENCODING 613
SWIDTH 607 0
DWIDTH 10 0
BBX 10 12 0 -4
BITMAP
F3C0
6180
6180
6180
6180
6180
6380
3D80
0180
0180
01C0
0180
ENDCHAR
STARTCHAR uni0275
ENCODING 629
SWIDTH 577 0
DWIDTH 10 0
BBX 8 8 1 0
BITMAP
3C
66
C3
FF
C3
C3
66
3C
ENDCHAR
STARTCHAR uni0279
ENCODING 633
SWIDTH 389 0
DWIDTH 6 0
BBX 6 8 1 0
BITMAP
3C
18
18
18
18
18
FC
D8
ENDCHAR
STARTCHAR uni0287
ENCODING 647
SWIDTH 344 0
DWIDTH 6 0
BBX 5 10 0 0
BITMAP
E0
30
30
30
30
30
30
F8
20
20
ENDCHAR
STARTCHAR uni0288
ENCODING 648
SWIDTH 344 0
DWIDTH 6 0
BBX 5 14 0 -4
BITMAP
20
20
F8
60
60
60
60
60
60
60
60
20
30
08
ENDCHAR
STARTCHAR uni0289
ENCODING 649
SWIDTH 606 0
DWIDTH 10 0
BBX 10 8 0 0
BITMAP
6180
E380
6180
FFC0
6180
6180
6380
3DC0
ENDCHAR
STARTCHAR uni028C
ENCODING 652
SWIDTH 504 0
DWIDTH 8 0
BBX 9 8 0 0
BITMAP
0800
1C00
1C00
1400
2600
2200
4300
E780
ENDCHAR
STARTCHAR uni028D
ENCODING 653
SWIDTH 768 0
DWIDTH 13 0
BBX 13 8 0 0
BITMAP
18C0
18C0
3960
2D60
2D60
4E30
4630
E678
ENDCHAR
STARTCHAR uni028E
ENCODING 654
SWIDTH 506 0
DWIDTH 8 0
BBX 9 12 0 0
BITMAP
0700
0500
0800
0800
1800
1C00
2C00
2600
2600
4200
4300
E780
ENDCHAR
STARTCHAR uni029E
ENCODING 670
SWIDTH 524 0
DWIDTH 9 0
BBX 9 12 0 -4
BITMAP
C780
7300
1B00
0F00
0F00
0B00
1300
6300
0300
0300
0380
0300
ENDCHAR
STARTCHAR uni02BB
ENCODING 699
SWIDTH 278 0
DWIDTH 5 0
BBX 2 4 1 8
BITMAP
40
80
80
C0
ENDCHAR
STARTCHAR afii57929
ENCODING 700
SWIDTH 278 0
DWIDTH 5 0
BBX 2 4 1 8
BITMAP
C0
40
40
80
ENDCHAR
STARTCHAR afii64937
ENCODING 701
SWIDTH 278 0
DWIDTH 5 0
BBX 2 4 1 8
BITMAP
C0
80
80
40
ENDCHAR
STARTCHAR circumflex
ENCODING 710
SWIDTH 400 0
DWIDTH 7 0
BBX 5 3 1 9
BITMAP
20
50
88
ENDCHAR
STARTCHAR caron
ENCODING 711
SWIDTH 400 0
DWIDTH 7 0
BBX 5 3 1 9
BITMAP
88
70
20
ENDCHAR
STARTCHAR uni02C8
ENCODING 712
SWIDTH 278 0
DWIDTH 5 0
BBX 2 5 1 7
BITMAP
C0
C0
C0
40
40
ENDCHAR
STARTCHAR macron
ENCODING 713
SWIDTH 400 0
DWIDTH 7 0
BBX 5 1 1 10
BITMAP
F8
ENDCHAR
STARTCHAR uni02CA
ENCODING 714
SWIDTH 400 0
DWIDTH 7 0
BBX 4 3 2 9
BITMAP
30
60
80
ENDCHAR
STARTCHAR uni02CB
ENCODING 715
SWIDTH 400 0
DWIDTH 7 0
BBX 4 3 1 9
BITMAP
C0
60
10
ENDCHAR
STARTCHAR uni02CD
ENCODING 717
SWIDTH 400 0
DWIDTH 7 0
BBX 5 1 1 -2
BITMAP
F8
ENDCHAR
STARTCHAR uni02CE
ENCODING 718
SWIDTH 400 0
DWIDTH 7 0
BBX 4 3 1 -4
BITMAP
C0
60
10
ENDCHAR
STARTCHAR uni02CF
ENCODING 719
SWIDTH 400 0
DWIDTH 7 0
BBX 4 3 2 -4
BITMAP
30
60
80
ENDCHAR
STARTCHAR breve
ENCODING 728
SWIDTH 400 0
DWIDTH 7 0
BBX 5 3 1 9
BITMAP
88
88
70
ENDCHAR
STARTCHAR dotaccent
ENCODING 729
SWIDTH 400 0
DWIDTH 7 0
BBX 2 2 2 9
BITMAP
C0
C0
ENDCHAR
STARTCHAR ring
ENCODING 730
SWIDTH 400 0
DWIDTH 7 0
BBX 3 4 2 9
BITMAP
40
A0
A0
40
ENDCHAR
STARTCHAR ogonek
ENCODING 731
SWIDTH 400 0
DWIDTH 7 0
BBX 3 4 2 -4
BITMAP
40
80
80
E0
ENDCHAR
STARTCHAR tilde
ENCODING 732
SWIDTH 400 0
DWIDTH 7 0
BBX 6 2 0 9
BITMAP
64
98
ENDCHAR
STARTCHAR hungarumlaut
ENCODING 733
SWIDTH 400 0
DWIDTH 7 0
BBX 5 3 2 9
BITMAP
58
50
90
ENDCHAR
STARTCHAR uni02EE
ENCODING 750
SWIDTH 458 0
DWIDTH 8 0
BBX 5 4 1 8
BITMAP
D8
58
50
90
ENDCHAR
STARTCHAR uni037E
ENCODING 894
SWIDTH 265 0
DWIDTH 4 0
BBX 3 10 1 -2
BITMAP
40
C0
00
00
00
00
60
60
40
80
ENDCHAR
STARTCHAR tonos
ENCODING 900
SWIDTH 400 0
DWIDTH 7 0
BBX 4 3 2 9
BITMAP
30
60
80
ENDCHAR
STARTCHAR dieresistonos
ENCODING 901
SWIDTH 400 0
DWIDTH 7 0
BBX 6 6 1 9
BITMAP
0C
18
20
00
D8
D8
ENDCHAR
STARTCHAR anoteleia
ENCODING 903
SWIDTH 265 0
DWIDTH 4 0
BBX 2 2 1 3
BITMAP
C0
C0
ENDCHAR
STARTCHAR mu
ENCODING 956
SWIDTH 606 0
DWIDTH 10 0
BBX 10 12 0 -4
BITMAP
6180
E380
6180
6180
6180
6180
6380
7DC0
4000
6000
6000
6000
ENDCHAR
STARTCHAR uni1E00
ENCODING 7680
SWIDTH 635 0
DWIDTH 11 0
BBX 11 17 0 -5
BITMAP
0400
0E00
0E00
0A00
1300
1100
1F00
2180
2180
2080
40C0
F1E0
0000
0400
0A00
0A00
0400
ENDCHAR
STARTCHAR uni1E01
ENCODING 7681
SWIDTH 523 0
DWIDTH 9 0
BBX 7 13 1 -5
BITMAP
38
CC
8C
3C
CC
CC
CC
7E
00
10
28
28
10
ENDCHAR
STARTCHAR uni1E02
ENCODING 7682
SWIDTH 646 0
DWIDTH 11 0
BBX 9 15 1 0
BITMAP
1800
1800
0000
FE00
6300
6180
6180
6300
7C00
6300
6180
6180
6180
6300
FE00
ENDCHAR
STARTCHAR uni1E03
ENCODING 7683
SWIDTH 598 0
DWIDTH 10 0
BBX 9 15 0 0
BITMAP
3000
3000
0000
6000
E000
6000
6000
6E00
7300
6180
6180
6180
6180
6300
5E00
ENDCHAR
STARTCHAR uni1E04
ENCODING 7684
SWIDTH 646 0
DWIDTH 11 0
BBX 9 15 1 -3
BITMAP
FE00
6300
6180
6180
6300
7C00
6300
6180
6180
6180
6300
FE00
0000
1800
1800
ENDCHAR
STARTCHAR uni1E05
ENCODING 7685
SWIDTH 598 0
DWIDTH 10 0
BBX 9 15 0 -3
BITMAP
6000
E000
6000
6000
6E00
7300
6180
6180
6180
6180
6300
5E00
0000
0C00
0C00
ENDCHAR
STARTCHAR uni1E06
ENCODING 7686
SWIDTH 646 0
DWIDTH 11 0
BBX 9 14 1 -2
BITMAP
FE00
6300
6180
6180
6300
7C00
6300
6180
6180
6180
6300
FE00
0000
3E00
ENDCHAR
STARTCHAR uni1E07
ENCODING 7687
SWIDTH 598 0
DWIDTH 10 0
BBX 9 14 0 -2
BITMAP
6000
E000
6000
6000
6E00
7300
6180
6180
6180
6180
6300
5E00
0000
3E00
ENDCHAR
STARTCHAR uni1E08
ENCODING 7688
SWIDTH 680 0
DWIDTH 11 0
BBX 10 20 1 -4
BITMAP
0300
0600
0800
0000
0F00
30C0
6040
4000
C000
C000
C000
C000
C040
6040
30C0
1F00
0800
0C00
0600
0C00
ENDCHAR
STARTCHAR uni1E09
ENCODING 7689
SWIDTH 496 0
DWIDTH 8 0
BBX 7 16 1 -4
BITMAP
0C
18
20
00
38
4E
C4
C0
C0
C2
44
38
10
10
18
30
ENDCHAR
STARTCHAR uni1E0A
ENCODING 7690
SWIDTH 779 0
DWIDTH 13 0
BBX 12 15 0 0
BITMAP
0600
0600
0000
7F00
30C0
3060
3030
3030
3030
3030
3030
3020
3060
30C0
FF00
ENDCHAR
STARTCHAR uni1E0B
ENCODING 7691
SWIDTH 598 0
DWIDTH 10 0
BBX 9 15 1 0
BITMAP
0600
0600
0000
0300
0700
0300
0300
1F00
6300
4300
C300
C300
C300
6700
3B80
ENDCHAR
STARTCHAR uni1E0C
ENCODING 7692
SWIDTH 779 0
DWIDTH 13 0
BBX 12 15 0 -3
BITMAP
7F00
30C0
3060
3030
3030
3030
3030
3030
3020
3060
30C0
FF00
0000
0C00
0C00
ENDCHAR
STARTCHAR uni1E0D
ENCODING 7693
SWIDTH 598 0
DWIDTH 10 0
BBX 9 15 1 -3
BITMAP
0300
0700
0300
0300
1F00
6300
4300
C300
C300
C300
6700
3B80
0000
0C00
0C00
ENDCHAR
STARTCHAR uni1E0E
ENCODING 7694
SWIDTH 779 0
DWIDTH 13 0
BBX 12 14 0 -2
BITMAP
7F00
30C0
3060
3030
3030
3030
3030
3030
3020
3060
30C0
FF00
0000
1F00
ENDCHAR
STARTCHAR uni1E0F
ENCODING 7695
SWIDTH 598 0
DWIDTH 10 0
BBX 9 14 1 -2
BITMAP
0300
0700
0300
0300
1F00
6300
4300
C300
C300
C300
6700
3B80
0000
3E00
ENDCHAR
STARTCHAR uni1E10
ENCODING 7696
SWIDTH 779 0
DWIDTH 13 0
BBX 12 16 0 -4
BITMAP
7F00
30C0
3060
3030
3030
3030
3030
3030
3020
3060
30C0
FF00
0400
0C00
0600
0C00
ENDCHAR
STARTCHAR uni1E11
ENCODING 7697
SWIDTH 598 0
DWIDTH 10 0
BBX 9 16 1 -4
BITMAP
0300
0700
0300
0300
1F00
6300
4300
C300
C300
C300
6700
3B80
0800
1800
0C00
1800
ENDCHAR
STARTCHAR uni1E12
ENCODING 7698
SWIDTH 779 0
DWIDTH 13 0
BBX 12 16 0 -4
BITMAP
7F00
30C0
3060
3030
3030
3030
3030
3030
3020
3060
30C0
FF00
0000
0400
0A00
1100
ENDCHAR
STARTCHAR uni1E13
ENCODING 7699
SWIDTH 598 0
DWIDTH 10 0
BBX 9 16 1 -4
BITMAP
0300
0700
0300
0300
1F00
6300
4300
C300
C300
C300
6700
3B80
0000
0800
1400
2200
ENDCHAR
STARTCHAR uni1E14
ENCODING 7700
SWIDTH 606 0
DWIDTH 10 0
BBX 9 18 1 0
BITMAP
6000
3000
0800
0000
3E00
0000
FF00
6300
6100
6000
6200
6200
7E00
6200
6000
6080
6100
FF00
ENDCHAR
STARTCHAR uni1E15
ENCODING 7701
SWIDTH 514 0
DWIDTH 9 0
BBX 7 14 1 0
BITMAP
60
30
08
00
7C
00
38
44
C6
FE
C0
C2
64
38
ENDCHAR
STARTCHAR uni1E16
ENCODING 7702
SWIDTH 606 0
DWIDTH 10 0
BBX 9 18 1 0
BITMAP
0600
0C00
1000
0000
3E00
0000
FF00
6300
6100
6000
6200
6200
7E00
6200
6000
6080
6100
FF00
ENDCHAR
STARTCHAR uni1E17
ENCODING 7703
SWIDTH 514 0
DWIDTH 9 0
BBX 7 14 1 0
BITMAP
06
0C
10
00
7C
00
38
44
C6
FE
C0
C2
64
38
ENDCHAR
STARTCHAR uni1E18
ENCODING 7704
SWIDTH 606 0
DWIDTH 10 0
BBX 9 16 1 -4
BITMAP
FF00
6300
6100
6000
6200
6200
7E00
6200
6000
6080
6100
FF00
0000
0800
1400
2200
ENDCHAR
STARTCHAR uni1E19
ENCODING 7705
SWIDTH 514 0
DWIDTH 9 0
BBX 7 12 1 -4
BITMAP
38
44
C6
FE
C0
C2
64
38
00
10
28
44
ENDCHAR
STARTCHAR uni1E1A
ENCODING 7706
SWIDTH 606 0
DWIDTH 10 0
BBX 9 15 1 -3
BITMAP
FF00
6300
6100
6000
6200
6200
7E00
6200
6000
6080
6100
FF00
0000
3200
4C00
ENDCHAR
STARTCHAR uni1E1B
ENCODING 7707
SWIDTH 514 0
DWIDTH 9 0
BBX 7 11 1 -3
BITMAP
38
44
C6
FE
C0
C2
64
38
00
64
98
ENDCHAR
STARTCHAR uni1E1C
ENCODING 7708
SWIDTH 606 0
DWIDTH 10 0
BBX 9 20 1 -4
BITMAP
2200
2200
1C00
0000
FF00
6300
6100
6000
6200
6200
7E00
6200
6000
6080
6100
FF00
0800
1800
0C00
1800
ENDCHAR
STARTCHAR uni1E1D
ENCODING 7709
SWIDTH 514 0
DWIDTH 9 0
BBX 7 16 1 -4
BITMAP
44
44
38
00
38
44
C6
FE
C0
C2
64
38
10
30
18
30
ENDCHAR
STARTCHAR uni1E1E
ENCODING 7710
SWIDTH 580 0
DWIDTH 10 0
BBX 8 15 1 0
BITMAP
18
18
00
FF
61
61
60
60
62
7E
62
60
60
60
F0
ENDCHAR
STARTCHAR uni1E1F
ENCODING 7711
SWIDTH 319 0
DWIDTH 5 0
BBX 6 15 1 0
BITMAP
30
30
00
18
2C
60
60
F8
60
60
60
60
60
60
F0
ENDCHAR
STARTCHAR uni1E20
ENCODING 7712
SWIDTH 734 0
DWIDTH 12 0
BBX 11 14 1 0
BITMAP
1F00
0000
0F80
30C0
6040
4000
C000
C000
C3E0
C0C0
40C0
60C0
30C0
0F00
ENDCHAR
STARTCHAR uni1E21
ENCODING 7713
SWIDTH 520 0
DWIDTH 9 0
BBX 9 14 0 -4
BITMAP
3E00
0000
1D80
2200
6300
6300
3C00
2000
6000
3F00
4180
C180
4300
3C00
ENDCHAR
STARTCHAR uni1E22
ENCODING 7714
SWIDTH 798 0
DWIDTH 13 0
BBX 11 15 1 0
BITMAP
0600
0600
0000
F1E0
60C0
60C0
60C0
60C0
60C0
7FC0
60C0
60C0
60C0
60C0
F1E0
ENDCHAR
STARTCHAR uni1E23
ENCODING 7715
SWIDTH 607 0
DWIDTH 10 0
BBX 10 15 0 0
BITMAP
3000
3000
0000
6000
E000
6000
6000
6F00
7180
6180
6180
6180
6180
6180
F3C0
ENDCHAR
STARTCHAR uni1E24
ENCODING 7716
SWIDTH 798 0
DWIDTH 13 0
BBX 11 15 1 -3
BITMAP
F1E0
60C0
60C0
60C0
60C0
60C0
7FC0
60C0
60C0
60C0
60C0
F1E0
0000
0600
0600
ENDCHAR
STARTCHAR uni1E25
ENCODING 7717
SWIDTH 607 0
DWIDTH 10 0
BBX 10 15 0 -3
BITMAP
6000
E000
6000
6000
6F00
7180
6180
6180
6180
6180
6180
F3C0
0000
0C00
0C00
ENDCHAR
STARTCHAR uni1E26
ENCODING 7718
SWIDTH 798 0
DWIDTH 13 0
BBX 11 15 1 0
BITMAP
1B00
1B00
0000
F1E0
60C0
60C0
60C0
60C0
60C0
7FC0
60C0
60C0
60C0
60C0
F1E0
ENDCHAR
STARTCHAR uni1E27
ENCODING 7719
SWIDTH 607 0
DWIDTH 10 0
BBX 10 15 0 0
BITMAP
D800
D800
0000
6000
E000
6000
6000
6F00
7180
6180
6180
6180
6180
6180
F3C0
ENDCHAR
STARTCHAR uni1E28
ENCODING 7720
SWIDTH 798 0
DWIDTH 13 0
BBX 11 16 1 -4
BITMAP
F1E0
60C0
60C0
60C0
60C0
60C0
7FC0
60C0
60C0
60C0
60C0
F1E0
0400
0C00
0600
0C00
ENDCHAR
STARTCHAR uni1E29
ENCODING 7721
SWIDTH 607 0
DWIDTH 10 0
BBX 10 16 0 -4
BITMAP
6000
E000
6000
6000
6F00
7180
6180
6180
6180
6180
6180
F3C0
0400
0C00
0600
0C00
ENDCHAR
STARTCHAR uni1E2A
ENCODING 7722
SWIDTH 798 0
DWIDTH 13 0
BBX 11 16 1 -4
BITMAP
F1E0
60C0
60C0
60C0
60C0
60C0
7FC0
60C0
60C0
60C0
60C0
F1E0
0000
1100
1100
0E00
ENDCHAR
STARTCHAR uni1E2B
ENCODING 7723
SWIDTH 607 0
DWIDTH 10 0
BBX 10 16 0 -4
BITMAP
6000
E000
6000
6000
6F00
7180
6180
6180
6180
6180
6180
F3C0
0000
1100
1100
0E00
ENDCHAR
STARTCHAR uni1E2C
ENCODING 7724
SWIDTH 349 0
DWIDTH 6 0
BBX 6 15 0 -3
BITMAP
78
30
30
30
30
30
30
30
30
30
30
78
00
64
98
ENDCHAR
STARTCHAR uni1E2D
ENCODING 7725
SWIDTH 291 0
DWIDTH 5 0
BBX 6 15 0 -3
BITMAP
30
30
00
00
30
70
30
30
30
30
30
78
00
64
98
ENDCHAR
STARTCHAR uni1E2E
ENCODING 7726
SWIDTH 349 0
DWIDTH 6 0
BBX 6 18 0 0
BITMAP
0C
18
20
00
CC
CC
FC
30
30
30
30
30
30
30
30
30
30
78
ENDCHAR
STARTCHAR uni1E2F
ENCODING 7727
SWIDTH 291 0
DWIDTH 5 0
BBX 6 15 0 0
BITMAP
0C
18
20
00
CC
C8
00
30
70
30
30
30
30
30
78
ENDCHAR
STARTCHAR uni1E30
ENCODING 7728
SWIDTH 658 0
DWIDTH 11 0
BBX 10 16 1 0
BITMAP
0600
0C00
1000
0000
F3C0
6100
6200
6400
6800
7800
7800
6C00
6600
6300
6180
F0C0
ENDCHAR
STARTCHAR uni1E31
ENCODING 7729
SWIDTH 524 0
DWIDTH 9 0
BBX 9 16 0 0
BITMAP
0C00
1800
2000
0000
6000
E000
6000
6000
6300
6400
6800
7800
7800
6C00
6700
F180
ENDCHAR
STARTCHAR uni1E32
ENCODING 7730
SWIDTH 658 0
DWIDTH 11 0
BBX 10 15 1 -3
BITMAP
F3C0
6100
6200
6400
6800
7800
7800
6C00
6600
6300
6180
F0C0
0000
0C00
0C00
ENDCHAR
STARTCHAR uni1E33
ENCODING 7731
SWIDTH 524 0
DWIDTH 9 0
BBX 9 15 0 -3
BITMAP
6000
E000
6000
6000
6300
6400
6800
7800
7800
6C00
6700
F180
0000
1800
1800
ENDCHAR
STARTCHAR uni1E34
ENCODING 7732
SWIDTH 658 0
DWIDTH 11 0
BBX 10 14 1 -2
BITMAP
F3C0
6100
6200
6400
6800
7800
7800
6C00
6600
6300
6180
F0C0
0000
3E00
ENDCHAR
STARTCHAR uni1E35
ENCODING 7733
SWIDTH 524 0
DWIDTH 9 0
BBX 9 14 0 -2
BITMAP
6000
E000
6000
6000
6300
6400
6800
7800
7800
6C00
6700
F180
0000
3E00
ENDCHAR
STARTCHAR uni1E36
ENCODING 7734
SWIDTH 568 0
DWIDTH 9 0
BBX 9 15 1 -3
BITMAP
F000
6000
6000
6000
6000
6000
6000
6000
6000
6080
6100
FF00
0000
1800
1800
ENDCHAR
STARTCHAR uni1E37
ENCODING 7735
SWIDTH 279 0
DWIDTH 5 0
BBX 4 15 0 -3
BITMAP
60
E0
60
60
60
60
60
60
60
60
60
F0
00
60
60
ENDCHAR
STARTCHAR uni1E38
ENCODING 7736
SWIDTH 568 0
DWIDTH 9 0
BBX 9 17 1 -3
BITMAP
F800
0000
F000
6000
6000
6000
6000
6000
6000
6000
6000
6080
6100
FF00
0000
1800
1800
ENDCHAR
STARTCHAR uni1E39
ENCODING 7737
SWIDTH 279 0
DWIDTH 5 0
BBX 5 17 -1 -3
BITMAP
F8
00
30
70
30
30
30
30
30
30
30
30
30
78
00
30
30
ENDCHAR
STARTCHAR uni1E3A
ENCODING 7738
SWIDTH 568 0
DWIDTH 9 0
BBX 9 14 1 -2
BITMAP
F000
6000
6000
6000
6000
6000
6000
6000
6000
6080
6100
FF00
0000
3E00
ENDCHAR
STARTCHAR uni1E3B
ENCODING 7739
SWIDTH 279 0
DWIDTH 5 0
BBX 5 14 0 -2
BITMAP
60
E0
60
60
60
60
60
60
60
60
60
F0
00
F8
ENDCHAR
STARTCHAR uni1E3C
ENCODING 7740
SWIDTH 568 0
DWIDTH 9 0
BBX 9 16 1 -4
BITMAP
F000
6000
6000
6000
6000
6000
6000
6000
6000
6080
6100
FF00
0000
0800
1400
2200
ENDCHAR
STARTCHAR uni1E3D
ENCODING 7741
SWIDTH 279 0
DWIDTH 5 0
BBX 5 16 0 -4
BITMAP
60
E0
60
60
60
60
60
60
60
60
60
F0
00
20
50
88
ENDCHAR
STARTCHAR uni1E3E
ENCODING 7742
SWIDTH 944 0
DWIDTH 16 0
BBX 14 16 1 0
BITMAP
00C0
0180
0200
0000
E01C
7038
7038
5858
5858
4858
4C98
4C98
4718
4718
4218
F23C
ENDCHAR
STARTCHAR uni1E3F
ENCODING 7743
SWIDTH 923 0
DWIDTH 15 0
BBX 14 12 1 0
BITMAP
00C0
0180
0200
0000
6E70
F398
6318
6318
6318
6318
6318
F7BC
ENDCHAR
STARTCHAR uni1E40
ENCODING 7744
SWIDTH 944 0
DWIDTH 16 0
BBX 14 15 1 0
BITMAP
0300
0300
0000
E01C
7038
7038
5858
5858
4858
4C98
4C98
4718
4718
4218
F23C
ENDCHAR
STARTCHAR uni1E41
ENCODING 7745
SWIDTH 923 0
DWIDTH 15 0
BBX 14 11 1 0
BITMAP
0300
0300
0000
6E70
F398
6318
6318
6318
6318
6318
F7BC
ENDCHAR
STARTCHAR uni1E42
ENCODING 7746
SWIDTH 944 0
DWIDTH 16 0
BBX 14 15 1 -3
BITMAP
E01C
7038
7038
5858
5858
4858
4C98
4C98
4718
4718
4218
F23C
0000
0300
0300
ENDCHAR
STARTCHAR uni1E43
ENCODING 7747
SWIDTH 923 0
DWIDTH 15 0
BBX 14 11 1 -3
BITMAP
6E70
F398
6318
6318
6318
6318
6318
F7BC
0000
0300
0300
ENDCHAR
STARTCHAR uni1E44
ENCODING 7748
SWIDTH 780 0
DWIDTH 13 0
BBX 11 15 1 0
BITMAP
0C00
0C00
0000
E1E0
7040
7040
5840
4C40
4C40
4640
4340
4340
41C0
40C0
F0C0
ENDCHAR
STARTCHAR uni1E45
ENCODING 7749
SWIDTH 619 0
DWIDTH 10 0
BBX 9 11 1 0
BITMAP
1800
1800
0000
6E00
F300
6300
6300
6300
6300
6300
F780
ENDCHAR
STARTCHAR uni1E46
ENCODING 7750
SWIDTH 780 0
DWIDTH 13 0
BBX 11 15 1 -3
BITMAP
E1E0
7040
7040
5840
4C40
4C40
4640
4340
4340
41C0
40C0
F0C0
0000
0600
0600
ENDCHAR
STARTCHAR uni1E47
ENCODING 7751
SWIDTH 619 0
DWIDTH 10 0
BBX 9 11 1 -3
BITMAP
6E00
F300
6300
6300
6300
6300
6300
F780
0000
0C00
0C00
ENDCHAR
STARTCHAR uni1E48
ENCODING 7752
SWIDTH 780 0
DWIDTH 13 0
BBX 11 14 1 -2
BITMAP
E1E0
7040
7040
5840
4C40
4C40
4640
4340
4340
41C0
40C0
F0C0
0000
1F00
ENDCHAR
STARTCHAR uni1E49
ENCODING 7753
SWIDTH 619 0
DWIDTH 10 0
BBX 9 10 1 -2
BITMAP
6E00
F300
6300
6300
6300
6300
6300
F780
0000
3E00
ENDCHAR
STARTCHAR uni1E4A
ENCODING 7754
SWIDTH 780 0
DWIDTH 13 0
BBX 11 16 1 -4
BITMAP
E1E0
7040
7040
5840
4C40
4C40
4640
4340
4340
41C0
40C0
F0C0
0000
0400
0A00
1100
ENDCHAR
STARTCHAR uni1E4B
ENCODING 7755
SWIDTH 619 0
DWIDTH 10 0
BBX 9 12 1 -4
BITMAP
6E00
F300
6300
6300
6300
6300
6300
F780
0000
0800
1400
2200
ENDCHAR
STARTCHAR uni1E4C
ENCODING 7756
SWIDTH 762 0
DWIDTH 13 0
BBX 11 18 1 0
BITMAP
0180
0300
0400
0000
1880
2700
0E00
3180
60C0
4040
C060
C060
C060
C060
4040
60C0
3180
0E00
ENDCHAR
STARTCHAR uni1E4D
ENCODING 7757
SWIDTH 577 0
DWIDTH 10 0
BBX 8 16 1 0
BITMAP
06
0C
10
00
02
3E
40
00
3C
66
C3
C3
C3
C3
66
3C
ENDCHAR
STARTCHAR uni1E4E
ENCODING 7758
SWIDTH 762 0
DWIDTH 13 0
BBX 11 17 1 0
BITMAP
1B00
1B00
0000
1880
2700
0E00
3180
60C0
4040
C060
C060
C060
C060
4040
60C0
3180
0E00
ENDCHAR
STARTCHAR uni1E4F
ENCODING 7759
SWIDTH 577 0
DWIDTH 10 0
BBX 8 15 1 0
BITMAP
36
36
00
02
3E
40
00
3C
66
C3
C3
C3
C3
66
3C
ENDCHAR
STARTCHAR uni1E50
ENCODING 7760
SWIDTH 762 0
DWIDTH 13 0
BBX 11 18 1 0
BITMAP
1800
0C00
0200
0000
1F00
0000
0E00
3180
60C0
4040
C060
C060
C060
C060
4040
60C0
3180
0E00
ENDCHAR
STARTCHAR uni1E51
ENCODING 7761
SWIDTH 577 0
DWIDTH 10 0
BBX 8 14 1 0
BITMAP
60
30
08
00
3E
00
3C
66
C3
C3
C3
C3
66
3C
ENDCHAR
STARTCHAR uni1E52
ENCODING 7762
SWIDTH 762 0
DWIDTH 13 0
BBX 11 18 1 0
BITMAP
0180
0300
0400
0000
1F00
0000
0E00
3180
60C0
4040
C060
C060
C060
C060
4040
60C0
3180
0E00
ENDCHAR
STARTCHAR uni1E53
ENCODING 7763
SWIDTH 577 0
DWIDTH 10 0
BBX 8 14 1 0
BITMAP
06
0C
10
00
3E
00
3C
66
C3
C3
C3
C3
66
3C
ENDCHAR
STARTCHAR uni1E54
ENCODING 7764
SWIDTH 600 0
DWIDTH 10 0
BBX 9 16 1 0
BITMAP
0600
0C00
1000
0000
FE00
6300
6180
6180
6180
6300
7C00
6000
6000
6000
6000
F800
ENDCHAR
STARTCHAR uni1E55
ENCODING 7765
SWIDTH 608 0
DWIDTH 10 0
BBX 9 16 0 -4
BITMAP
0600
0C00
1000
0000
6E00
F300
6180
6180
6180
6180
6300
7E00
6000
6000
6000
F000
ENDCHAR
STARTCHAR uni1E56
ENCODING 7766
SWIDTH 600 0
DWIDTH 10 0
BBX 9 15 1 0
BITMAP
1800
1800
0000
FE00
6300
6180
6180
6180
6300
7C00
6000
6000
6000
6000
F800
ENDCHAR
STARTCHAR uni1E57
ENCODING 7767
SWIDTH 608 0
DWIDTH 10 0
BBX 9 15 0 -4
BITMAP
1800
1800
0000
6E00
F300
6180
6180
6180
6180
6300
7E00
6000
6000
6000
F000
ENDCHAR
STARTCHAR uni1E58
ENCODING 7768
SWIDTH 644 0
DWIDTH 11 0
BBX 9 15 1 0
BITMAP
1800
1800
0000
FC00
6600
6300
6300
6300
6600
7800
6600
6200
6300
6300
F180
ENDCHAR
STARTCHAR uni1E59
ENCODING 7769
SWIDTH 389 0
DWIDTH 6 0
BBX 6 11 1 0
BITMAP
30
30
00
6C
FC
60
60
60
60
60
F0
ENDCHAR
STARTCHAR uni1E5A
ENCODING 7770
SWIDTH 644 0
DWIDTH 11 0
BBX 9 15 1 -3
BITMAP
FC00
6600
6300
6300
6300
6600
7800
6600
6200
6300
6300
F180
0000
1800
1800
ENDCHAR
STARTCHAR uni1E5B
ENCODING 7771
SWIDTH 389 0
DWIDTH 6 0
BBX 6 11 1 -3
BITMAP
6C
FC
60
60
60
60
60
F0
00
60
60
ENDCHAR
STARTCHAR uni1E5C
ENCODING 7772
SWIDTH 644 0
DWIDTH 11 0
BBX 9 17 1 -3
BITMAP
3E00
0000
FC00
6600
6300
6300
6300
6600
7800
6600
6200
6300
6300
F180
0000
1800
1800
ENDCHAR
STARTCHAR uni1E5D
ENCODING 7773
SWIDTH 389 0
DWIDTH 6 0
BBX 6 13 1 -3
BITMAP
7C
00
6C
FC
60
60
60
60
60
F0
00
60
60
ENDCHAR
STARTCHAR uni1E5E
ENCODING 7774
SWIDTH 644 0
DWIDTH 11 0
BBX 9 14 1 -2
BITMAP
FC00
6600
6300
6300
6300
6600
7800
6600
6200
6300
6300
F180
0000
3E00
ENDCHAR
STARTCHAR uni1E5F
ENCODING 7775
SWIDTH 389 0
DWIDTH 6 0
BBX 6 10 1 -2
BITMAP
6C
FC
60
60
60
60
60
F0
00
F8
ENDCHAR
STARTCHAR uni1E60
ENCODING 7776
SWIDTH 541 0
DWIDTH 9 0
BBX 8 15 1 0
BITMAP
18
18
00
3C
46
C2
C0
E0
78
1E
03
83
83
C6
3C
ENDCHAR
STARTCHAR uni1E61
ENCODING 7777
SWIDTH 436 0
DWIDTH 7 0
BBX 6 11 1 0
BITMAP
60
60
00
30
C8
C0
70
18
8C
C8
70
ENDCHAR
STARTCHAR uni1E62
ENCODING 7778
SWIDTH 541 0
DWIDTH 9 0
BBX 8 15 1 -3
BITMAP
3C
46
C2
C0
E0
78
1E
03
83
83
C6
3C
00
18
18
ENDCHAR
STARTCHAR uni1E63
ENCODING 7779
SWIDTH 436 0
DWIDTH 7 0
BBX 6 11 1 -3
BITMAP
30
C8
C0
70
18
8C
C8
70
00
30
30
ENDCHAR
STARTCHAR uni1E64
ENCODING 7780
SWIDTH 541 0
DWIDTH 9 0
BBX 8 19 1 0
BITMAP
18
18
00
06
0C
10
00
3C
46
C2
C0
E0
78
1E
03
83
83
C6
3C
ENDCHAR
STARTCHAR uni1E65
ENCODING 7781
SWIDTH 436 0
DWIDTH 7 0
BBX 6 15 1 0
BITMAP
30
30
00
18
30
40
00
30
C8
C0
70
18
8C
C8
70
ENDCHAR
STARTCHAR uni1E66
ENCODING 7782
SWIDTH 541 0
DWIDTH 9 0
BBX 8 18 1 0
BITMAP
18
18
00
64
38
00
3C
46
C2
C0
E0
78
1E
07
83
83
C6
3C
ENDCHAR
STARTCHAR uni1E67
ENCODING 7783
SWIDTH 436 0
DWIDTH 7 0
BBX 6 15 1 0
BITMAP
30
30
00
88
70
20
00
30
C8
C0
70
18
8C
C8
70
ENDCHAR
STARTCHAR uni1E68
ENCODING 7784
SWIDTH 541 0
DWIDTH 9 0
BBX 8 18 1 -3
BITMAP
18
18
00
3C
46
C2
C0
E0
78
1E
03
83
83
C6
3C
00
18
18
ENDCHAR
STARTCHAR uni1E69
ENCODING 7785
SWIDTH 436 0
DWIDTH 7 0
BBX 6 14 1 -3
BITMAP
60
60
00
30
C8
C0
70
18
8C
C8
70
00
30
30
ENDCHAR
STARTCHAR uni1E6A
ENCODING 7786
SWIDTH 621 0
DWIDTH 10 0
BBX 10 15 0 0
BITMAP
0C00
0C00
0000
FFC0
8C40
8C40
0C00
0C00
0C00
0C00
0C00
0C00
0C00
0C00
3F00
ENDCHAR
STARTCHAR uni1E6B
ENCODING 7787
SWIDTH 344 0
DWIDTH 6 0
BBX 5 13 0 0
BITMAP
30
30
00
20
20
F8
60
60
60
60
60
60
38
ENDCHAR
STARTCHAR uni1E6C
ENCODING 7788
SWIDTH 621 0
DWIDTH 10 0
BBX 10 15 0 -3
BITMAP
FFC0
8C40
8C40
0C00
0C00
0C00
0C00
0C00
0C00
0C00
0C00
3F00
0000
0C00
0C00
ENDCHAR
STARTCHAR uni1E6D
ENCODING 7789
SWIDTH 344 0
DWIDTH 6 0
BBX 5 13 0 -3
BITMAP
20
20
F8
60
60
60
60
60
60
38
00
30
30
ENDCHAR
STARTCHAR uni1E6E
ENCODING 7790
SWIDTH 621 0
DWIDTH 10 0
BBX 10 14 0 -2
BITMAP
FFC0
8C40
8C40
0C00
0C00
0C00
0C00
0C00
0C00
0C00
0C00
3F00
0000
1F00
ENDCHAR
STARTCHAR uni1E6F
ENCODING 7791
SWIDTH 344 0
DWIDTH 6 0
BBX 5 12 0 -2
BITMAP
20
20
F8
60
60
60
60
60
60
38
00
F8
ENDCHAR
STARTCHAR uni1E70
ENCODING 7792
SWIDTH 621 0
DWIDTH 10 0
BBX 10 16 0 -4
BITMAP
FFC0
8C40
8C40
0C00
0C00
0C00
0C00
0C00
0C00
0C00
0C00
3F00
0000
0400
0A00
1100
ENDCHAR
STARTCHAR uni1E71
ENCODING 7793
SWIDTH 344 0
DWIDTH 6 0
BBX 5 14 0 -4
BITMAP
20
20
F8
60
60
60
60
60
60
38
00
20
50
88
ENDCHAR
STARTCHAR uni1E72
ENCODING 7794
SWIDTH 791 0
DWIDTH 13 0
BBX 11 15 1 -3
BITMAP
F1E0
60C0
60C0
60C0
60C0
60C0
60C0
60C0
60C0
2080
3180
0E00
0000
1B00
1B00
ENDCHAR
STARTCHAR uni1E73
ENCODING 7795
SWIDTH 606 0
DWIDTH 10 0
BBX 10 11 0 -3
BITMAP
6180
E380
6180
6180
6180
6180
6380
3DC0
0000
1B00
1B00
ENDCHAR
STARTCHAR uni1E74
ENCODING 7796
SWIDTH 791 0
DWIDTH 13 0
BBX 11 15 1 -3
BITMAP
F1E0
60C0
60C0
60C0
60C0
60C0
60C0
60C0
60C0
2080
3180
0E00
0000
1900
2600
ENDCHAR
STARTCHAR uni1E75
ENCODING 7797
SWIDTH 606 0
DWIDTH 10 0
BBX 10 11 0 -3
BITMAP
6180
E380
6180
6180
6180
6180
6380
3DC0
0000
1900
2600
ENDCHAR
STARTCHAR uni1E76
ENCODING 7798
SWIDTH 791 0
DWIDTH 13 0
BBX 11 16 1 -4
BITMAP
F1E0
60C0
60C0
60C0
60C0
60C0
60C0
60C0
60C0
2080
3180
0E00
0000
0400
0A00
1100
ENDCHAR
STARTCHAR uni1E77
ENCODING 7799
SWIDTH 606 0
DWIDTH 10 0
BBX 10 12 0 -4
BITMAP
6180
E380
6180
6180
6180
6180
6380
3DC0
0000
0400
0A00
1100
ENDCHAR
STARTCHAR uni1E78
ENCODING 7800
SWIDTH 791 0
DWIDTH 13 0
BBX 11 19 1 0
BITMAP
0180
0300
0400
0000
0C80
1300
0000
F1E0
60C0
60C0
60C0
60C0
60C0
60C0
60C0
60C0
2080
3180
0E00
ENDCHAR
STARTCHAR uni1E79
ENCODING 7801
SWIDTH 606 0
DWIDTH 10 0
BBX 10 15 0 0
BITMAP
0300
0600
0800
0000
1900
2600
0000
6180
E380
6180
6180
6180
6180
6380
3DC0
ENDCHAR
STARTCHAR uni1E7A
ENCODING 7802
SWIDTH 791 0
DWIDTH 13 0
BBX 11 17 1 0
BITMAP
1B00
1B00
0000
1F00
0000
F1E0
60C0
60C0
60C0
60C0
60C0
60C0
60C0
60C0
2080
3180
0E00
ENDCHAR
STARTCHAR uni1E7B
ENCODING 7803
SWIDTH 606 0
DWIDTH 10 0
BBX 10 13 0 0
BITMAP
3600
3600
0000
3E00
0000
6180
E380
6180
6180
6180
6180
6380
3DC0
ENDCHAR
STARTCHAR uni1E7C
ENCODING 7804
SWIDTH 634 0
DWIDTH 11 0
BBX 12 15 -1 0
BITMAP
0C80
1300
0000
F0F0
6060
3040
3040
1080
1880
1880
0D00
0D00
0E00
0600
0600
ENDCHAR
STARTCHAR uni1E7D
ENCODING 7805
SWIDTH 504 0
DWIDTH 8 0
BBX 9 11 0 0
BITMAP
3200
4C00
0000
F380
6100
2200
3200
1400
1C00
1C00
0800
ENDCHAR
STARTCHAR uni1E7E
ENCODING 7806
SWIDTH 634 0
DWIDTH 11 0
BBX 12 15 -1 -3
BITMAP
F0F0
6060
3040
3040
1080
1880
1880
0D00
0D00
0E00
0600
0600
0000
0600
0600
ENDCHAR
STARTCHAR uni1E7F
ENCODING 7807
SWIDTH 504 0
DWIDTH 8 0
BBX 9 11 0 -3
BITMAP
F380
6100
2200
3200
1400
1C00
1C00
0800
0000
0C00
0C00
ENDCHAR
STARTCHAR Wgrave
ENCODING 7808
SWIDTH 940 0
DWIDTH 16 0
BBX 16 16 0 0
BITMAP
0600
0300
0080
0000
F00F
6082
2186
21C4
3144
3244
124C
1228
1A28
1C28
0C38
0C10
ENDCHAR
STARTCHAR wgrave
ENCODING 7809
SWIDTH 768 0
DWIDTH 13 0
BBX 13 12 0 0
BITMAP
1800
0C00
0200
0000
F338
6310
6390
35A0
35A0
34E0
18C0
18C0
ENDCHAR
STARTCHAR Wacute
ENCODING 7810
SWIDTH 940 0
DWIDTH 16 0
BBX 16 16 0 0
BITMAP
0060
00C0
0100
0000
F00F
6082
2186
21C4
3144
3244
124C
1228
1A28
1C28
0C38
0C10
ENDCHAR
STARTCHAR wacute
ENCODING 7811
SWIDTH 768 0
DWIDTH 13 0
BBX 13 12 0 0
BITMAP
0180
0300
0400
0000
F338
6310
6390
35A0
35A0
34E0
18C0
18C0
ENDCHAR
STARTCHAR Wdieresis
ENCODING 7812
SWIDTH 940 0
DWIDTH 16 0
BBX 16 15 0 0
BITMAP
0360
0360
0000
F00F
6082
2186
21C4
3144
3244
124C
1228
1A28
1C28
0C38
0C10
ENDCHAR
STARTCHAR wdieresis
ENCODING 7813
SWIDTH 768 0
DWIDTH 13 0
BBX 13 11 0 0
BITMAP
0D80
0D80
0000
F338
6310
6390
35A0
35A0
34E0
18C0
18C0
ENDCHAR
STARTCHAR uni1E86
ENCODING 7814
SWIDTH 940 0
DWIDTH 16 0
BBX 16 15 0 0
BITMAP
0180
0180
0000
F00F
6082
2186
21C4
3144
3244
124C
1228
1A28
1C28
0C38
0C10
ENDCHAR
STARTCHAR uni1E87
ENCODING 7815
SWIDTH 768 0
DWIDTH 13 0
BBX 13 11 0 0
BITMAP
0600
0600
0000
F338
6310
6390
35A0
35A0
34E0
18C0
18C0
ENDCHAR
STARTCHAR uni1E88
ENCODING 7816
SWIDTH 940 0
DWIDTH 16 0
BBX 16 15 0 -3
BITMAP
F00F
6082
2186
21C4
3144
3244
124C
1228
1A28
1C28
0C38
0C10
0000
0180
0180
ENDCHAR
STARTCHAR uni1E89
ENCODING 7817
SWIDTH 768 0
DWIDTH 13 0
BBX 13 11 0 -3
BITMAP
F338
6310
6390
35A0
35A0
34E0
18C0
18C0
0000
0300
0300
ENDCHAR
STARTCHAR uni1E8A
ENCODING 7818
SWIDTH 624 0
DWIDTH 10 0
BBX 11 15 0 0
BITMAP
0C00
0C00
0000
F1E0
6080
3100
1B00
1A00
0C00
0E00
1B00
1100
3180
60C0
F1E0
ENDCHAR
STARTCHAR uni1E8B
ENCODING 7819
SWIDTH 486 0
DWIDTH 8 0
BBX 8 11 0 0
BITMAP
18
18
00
E7
42
24
38
18
2C
46
EF
ENDCHAR
STARTCHAR uni1E8C
ENCODING 7820
SWIDTH 624 0
DWIDTH 10 0
BBX 11 15 0 0
BITMAP
1B00
1B00
0000
F1E0
6080
3100
1B00
1A00
0C00
0E00
1B00
1100
3180
60C0
F1E0
ENDCHAR
STARTCHAR uni1E8D
ENCODING 7821
SWIDTH 486 0
DWIDTH 8 0
BBX 8 11 0 0
BITMAP
36
36
00
E7
42
24
38
18
2C
46
EF
ENDCHAR
STARTCHAR uni1E8E
ENCODING 7822
SWIDTH 588 0
DWIDTH 10 0
BBX 10 15 0 0
BITMAP
0C00
0C00
0000
F1C0
6080
2100
3100
1A00
1A00
0C00
0C00
0C00
0C00
0C00
1F00
ENDCHAR
STARTCHAR uni1E8F
ENCODING 7823
SWIDTH 506 0
DWIDTH 8 0
BBX 9 15 0 -4
BITMAP
1800
1800
0000
F380
6100
2100
3200
3200
1A00
1C00
0C00
0800
0800
5000
7000
ENDCHAR
STARTCHAR uni1E90
ENCODING 7824
SWIDTH 610 0
DWIDTH 10 0
BBX 10 16 0 0
BITMAP
0400
0A00
1100
0000
7FC0
41C0
4180
0300
0600
0E00
0C00
1800
3000
3040
6040
FFC0
ENDCHAR
STARTCHAR uni1E91
ENCODING 7825
SWIDTH 480 0
DWIDTH 8 0
BBX 8 12 0 0
BITMAP
08
14
22
00
7F
47
46
0C
18
31
61
FF
ENDCHAR
STARTCHAR uni1E92
ENCODING 7826
SWIDTH 610 0
DWIDTH 10 0
BBX 10 15 0 -3
BITMAP
7FC0
41C0
4180
0300
0600
0E00
0C00
1800
3000
3040
6040
FFC0
0000
0C00
0C00
ENDCHAR
STARTCHAR uni1E93
ENCODING 7827
SWIDTH 480 0
DWIDTH 8 0
BBX 8 11 0 -3
BITMAP
7F
47
46
0C
18
31
61
FF
00
18
18
ENDCHAR
STARTCHAR uni1E94
ENCODING 7828
SWIDTH 610 0
DWIDTH 10 0
BBX 10 14 0 -2
BITMAP
7FC0
41C0
4180
0300
0600
0E00
0C00
1800
3000
3040
6040
FFC0
0000
3E00
ENDCHAR
STARTCHAR uni1E95
ENCODING 7829
SWIDTH 480 0
DWIDTH 8 0
BBX 8 10 0 -2
BITMAP
7F
47
46
0C
18
31
61
FF
00
3E
ENDCHAR
STARTCHAR uni1E96
ENCODING 7830
SWIDTH 607 0
DWIDTH 10 0
BBX 10 14 0 -2
BITMAP
6000
E000
6000
6000
6F00
7180
6180
6180
6180
6180
6180
F3C0
0000
1F00
ENDCHAR
STARTCHAR uni1E97
ENCODING 7831
SWIDTH 344 0
DWIDTH 6 0
BBX 5 13 0 0
BITMAP
D8
D8
00
20
20
F8
60
60
60
60
60
60
38
ENDCHAR
STARTCHAR uni1E98
ENCODING 7832
SWIDTH 768 0
DWIDTH 13 0
BBX 13 13 0 0
BITMAP
0200
0500
0500
0200
0000
F338
6310
6390
35A0
35A0
34E0
18C0
18C0
ENDCHAR
STARTCHAR uni1E99
ENCODING 7833
SWIDTH 506 0
DWIDTH 8 0
BBX 9 17 0 -4
BITMAP
0800
1400
1400
0800
0000
F380
6100
2100
3200
3200
1A00
1C00
0C00
0800
0800
5000
7000
ENDCHAR
STARTCHAR uni1EA0
ENCODING 7840
SWIDTH 635 0
DWIDTH 11 0
BBX 11 15 0 -3
BITMAP
0400
0E00
0E00
0A00
1300
1100
1F00
2180
2180
2080
40C0
F1E0
0000
0600
0600
ENDCHAR
STARTCHAR uni1EA1
ENCODING 7841
SWIDTH 523 0
DWIDTH 9 0
BBX 7 11 1 -3
BITMAP
38
CC
8C
3C
CC
CC
CC
7E
00
30
30
ENDCHAR
STARTCHAR uni1EA4
ENCODING 7844
SWIDTH 635 0
DWIDTH 11 0
BBX 11 19 0 0
BITMAP
0180
0300
0400
0000
0400
0E00
1100
0400
0E00
0E00
0A00
1300
1100
1F00
2180
2180
2080
40C0
F1E0
ENDCHAR
STARTCHAR uni1EA5
ENCODING 7845
SWIDTH 523 0
DWIDTH 9 0
BBX 7 16 1 0
BITMAP
0C
18
20
00
10
30
48
00
38
CC
CC
1C
6C
CC
CC
7E
ENDCHAR
STARTCHAR uni1EA6
ENCODING 7846
SWIDTH 635 0
DWIDTH 11 0
BBX 11 19 0 0
BITMAP
1800
0C00
0200
0000
0400
0E00
1100
0400
0E00
0E00
0A00
1300
1100
1F00
2180
2180
2080
40C0
F1E0
ENDCHAR
STARTCHAR uni1EA7
ENCODING 7847
SWIDTH 523 0
DWIDTH 9 0
BBX 7 16 1 0
BITMAP
C0
60
10
00
10
30
48
00
38
CC
CC
1C
6C
CC
CC
7E
ENDCHAR
STARTCHAR uni1EAA
ENCODING 7850
SWIDTH 635 0
DWIDTH 11 0
BBX 11 18 0 0
BITMAP
0C80
1300
0000
0400
0E00
1100
0400
0E00
0E00
0A00
1300
1100
1F00
2180
2180
2080
40C0
F1E0
ENDCHAR
STARTCHAR uni1EAB
ENCODING 7851
SWIDTH 523 0
DWIDTH 9 0
BBX 7 15 1 0
BITMAP
64
98
00
10
30
48
00
38
CC
CC
1C
6C
CC
CC
7E
ENDCHAR
STARTCHAR uni1EAC
ENCODING 7852
SWIDTH 635 0
DWIDTH 11 0
BBX 11 19 0 -3
BITMAP
0400
0A00
1100
0000
0400
0E00
0E00
0A00
1300
1100
1F00
2180
2180
2080
40C0
F1E0
0000
0600
0600
ENDCHAR
STARTCHAR uni1EAD
ENCODING 7853
SWIDTH 523 0
DWIDTH 9 0
BBX 7 15 1 -3
BITMAP
10
28
44
00
38
CC
8C
3C
CC
CC
CC
7E
00
30
30
ENDCHAR
STARTCHAR uni1EAE
ENCODING 7854
SWIDTH 635 0
DWIDTH 11 0
BBX 11 20 0 0
BITMAP
0180
0300
0400
0000
1100
1100
0E00
0000
0400
0E00
0E00
0A00
1300
1100
1F00
2180
2180
2080
40C0
F1E0
ENDCHAR
STARTCHAR uni1EAF
ENCODING 7855
SWIDTH 523 0
DWIDTH 9 0
BBX 7 16 1 0
BITMAP
06
0C
10
00
44
44
38
00
38
CC
8C
3C
CC
CC
CC
7E
ENDCHAR
STARTCHAR uni1EB0
ENCODING 7856
SWIDTH 635 0
DWIDTH 11 0
BBX 11 20 0 0
BITMAP
1800
0C00
0200
0000
1100
1100
0E00
0000
0400
0E00
0E00
0A00
1300
1100
1F00
2180
2180
2080
40C0
F1E0
ENDCHAR
STARTCHAR uni1EB1
ENCODING 7857
SWIDTH 523 0
DWIDTH 9 0
BBX 7 16 1 0
BITMAP
60
30
08
00
44
44
38
00
38
CC
8C
3C
CC
CC
CC
7E
ENDCHAR
STARTCHAR uni1EB4
ENCODING 7860
SWIDTH 635 0
DWIDTH 11 0
BBX 11 19 0 0
BITMAP
0C80
1300
0000
1100
1100
0E00
0000
0400
0E00
0E00
0A00
1300
1100
1F00
2180
2180
2080
40C0
F1E0
ENDCHAR
STARTCHAR uni1EB5
ENCODING 7861
SWIDTH 523 0
DWIDTH 9 0
BBX 7 15 1 0
BITMAP
32
4C
00
44
44
38
00
38
CC
8C
3C
CC
CC
CC
7E
ENDCHAR
STARTCHAR uni1EB6
ENCODING 7862
SWIDTH 635 0
DWIDTH 11 0
BBX 11 19 0 -3
BITMAP
1100
1100
0E00
0000
0400
0E00
0E00
0A00
1300
1100
1F00
2180
2180
2080
40C0
F1E0
0000
0600
0600
ENDCHAR
STARTCHAR uni1EB7
ENCODING 7863
SWIDTH 523 0
DWIDTH 9 0
BBX 7 15 1 -3
BITMAP
44
44
38
00
38
CC
8C
3C
CC
CC
CC
7E
00
30
30
ENDCHAR
STARTCHAR uni1EB8
ENCODING 7864
SWIDTH 606 0
DWIDTH 10 0
BBX 9 15 1 -3
BITMAP
FF00
6300
6100
6000
6200
6200
7E00
6200
6000
6080
6100
FF00
0000
1800
1800
ENDCHAR
STARTCHAR uni1EB9
ENCODING 7865
SWIDTH 514 0
DWIDTH 9 0
BBX 7 11 1 -3
BITMAP
38
44
C6
FE
C0
C2
64
38
00
30
30
ENDCHAR
STARTCHAR uni1EBC
ENCODING 7868
SWIDTH 606 0
DWIDTH 10 0
BBX 9 15 1 0
BITMAP
3200
4C00
0000
FF00
6300
6100
6000
6200
6200
7E00
6200
6000
6080
6100
FF00
ENDCHAR
STARTCHAR uni1EBD
ENCODING 7869
SWIDTH 514 0
DWIDTH 9 0
BBX 7 11 1 0
BITMAP
32
4C
00
38
44
C6
FE
C0
C2
64
38
ENDCHAR
STARTCHAR uni1EBE
ENCODING 7870
SWIDTH 606 0
DWIDTH 10 0
BBX 9 19 1 0
BITMAP
0600
0C00
1000
0000
1000
7C00
0000
FF00
6300
6100
6000
6200
6200
7E00
6200
6000
6080
6100
FF00
ENDCHAR
STARTCHAR uni1EBF
ENCODING 7871
SWIDTH 514 0
DWIDTH 9 0
BBX 7 16 1 0
BITMAP
06
0C
10
00
10
38
24
00
38
44
C6
FE
C0
C2
64
38
ENDCHAR
STARTCHAR uni1EC0
ENCODING 7872
SWIDTH 606 0
DWIDTH 10 0
BBX 9 19 1 0
BITMAP
6000
3000
0800
0000
1000
7C00
0000
FF00
6300
6100
6000
6200
6200
7E00
6200
6000
6080
6100
FF00
ENDCHAR
STARTCHAR uni1EC1
ENCODING 7873
SWIDTH 514 0
DWIDTH 9 0
BBX 7 16 1 0
BITMAP
60
30
08
00
10
38
24
00
38
44
C6
FE
C0
C2
64
38
ENDCHAR
STARTCHAR uni1EC4
ENCODING 7876
SWIDTH 606 0
DWIDTH 10 0
BBX 9 18 1 0
BITMAP
3200
4C00
0000
1000
7C00
0000
FF00
6300
6100
6000
6200
6200
7E00
6200
6000
6080
6100
FF00
ENDCHAR
STARTCHAR uni1EC5
ENCODING 7877
SWIDTH 514 0
DWIDTH 9 0
BBX 7 15 1 0
BITMAP
32
4C
00
10
38
24
00
38
44
C6
FE
C0
C2
64
38
ENDCHAR
STARTCHAR uni1EC6
ENCODING 7878
SWIDTH 606 0
DWIDTH 10 0
BBX 9 19 1 -3
BITMAP
0800
1400
2200
0000
FF00
6300
6100
6000
6200
6200
7E00
6200
6000
6080
6100
FF00
0000
1800
1800
ENDCHAR
STARTCHAR uni1EC7
ENCODING 7879
SWIDTH 514 0
DWIDTH 9 0
BBX 7 15 1 -3
BITMAP
10
28
44
00
38
44
C6
FE
C0
C2
64
38
00
30
30
ENDCHAR
STARTCHAR uni1ECA
ENCODING 7882
SWIDTH 349 0
DWIDTH 6 0
BBX 4 15 1 -3
BITMAP
F0
60
60
60
60
60
60
60
60
60
60
F0
00
60
60
ENDCHAR
STARTCHAR uni1ECB
ENCODING 7883
SWIDTH 291 0
DWIDTH 5 0
BBX 4 15 1 -3
BITMAP
60
60
00
00
60
E0
60
60
60
60
60
F0
00
60
60
ENDCHAR
STARTCHAR uni1ECC
ENCODING 7884
SWIDTH 762 0
DWIDTH 13 0
BBX 11 15 1 -3
BITMAP
0E00
3180
60C0
4040
C060
C060
C060
C060
4040
60C0
3180
0E00
0000
0600
0600
ENDCHAR
STARTCHAR uni1ECD
ENCODING 7885
SWIDTH 577 0
DWIDTH 10 0
BBX 8 11 1 -3
BITMAP
3C
66
C3
C3
C3
C3
66
3C
00
18
18
ENDCHAR
STARTCHAR uni1ED0
ENCODING 7888
SWIDTH 762 0
DWIDTH 13 0
BBX 11 19 1 0
BITMAP
0180
0300
0400
0000
0400
1F00
0000
0E00
3180
60C0
4040
C060
C060
C060
C060
4040
60C0
3180
0E00
ENDCHAR
STARTCHAR uni1ED1
ENCODING 7889
SWIDTH 577 0
DWIDTH 10 0
BBX 8 16 1 0
BITMAP
06
0C
10
00
08
18
24
00
3C
66
C3
C3
C3
C3
66
3C
ENDCHAR
STARTCHAR uni1ED2
ENCODING 7890
SWIDTH 762 0
DWIDTH 13 0
BBX 11 19 1 0
BITMAP
1800
0C00
0200
0000
0400
1F00
0000
0E00
3180
60C0
4040
C060
C060
C060
C060
4040
60C0
3180
0E00
ENDCHAR
STARTCHAR uni1ED3
ENCODING 7891
SWIDTH 577 0
DWIDTH 10 0
BBX 8 16 1 0
BITMAP
60
30
08
00
08
18
24
00
3C
66
C3
C3
C3
C3
66
3C
ENDCHAR
STARTCHAR uni1ED6
ENCODING 7894
SWIDTH 762 0
DWIDTH 13 0
BBX 11 18 1 0
BITMAP
0C80
1300
0000
0400
1F00
0000
0E00
3180
60C0
4040
C060
C060
C060
C060
4040
60C0
3180
0E00
ENDCHAR
STARTCHAR uni1ED7
ENCODING 7895
SWIDTH 577 0
DWIDTH 10 0
BBX 8 15 1 0
BITMAP
32
4C
00
08
18
24
00
3C
66
C3
C3
C3
C3
66
3C
ENDCHAR
STARTCHAR uni1ED8
ENCODING 7896
SWIDTH 762 0
DWIDTH 13 0
BBX 11 19 1 -3
BITMAP
0400
0A00
1100
0000
0E00
3180
60C0
4040
C060
C060
C060
C060
4040
60C0
3180
0E00
0000
0600
0600
ENDCHAR
STARTCHAR uni1ED9
ENCODING 7897
SWIDTH 577 0
DWIDTH 10 0
BBX 8 15 1 -3
BITMAP
08
14
22
00
3C
66
C3
C3
C3
C3
66
3C
00
18
18
ENDCHAR
STARTCHAR uni1EDA
ENCODING 7898
SWIDTH 762 0
DWIDTH 13 0
BBX 12 16 1 0
BITMAP
00C0
0180
0200
0000
0E30
3190
60D0
4060
C060
C060
C060
C060
4040
60C0
3180
0E00
ENDCHAR
STARTCHAR uni1EDB
ENCODING 7899
SWIDTH 577 0
DWIDTH 10 0
BBX 10 12 1 0
BITMAP
0300
0600
0800
0000
3CC0
6640
C340
C380
C300
C300
6600
3C00
ENDCHAR
STARTCHAR uni1EDC
ENCODING 7900
SWIDTH 762 0
DWIDTH 13 0
BBX 12 16 1 0
BITMAP
0C00
0600
0100
0000
0E30
3190
60D0
4060
C060
C060
C060
C060
4040
60C0
3180
0E00
ENDCHAR
STARTCHAR uni1EDD
ENCODING 7901
SWIDTH 577 0
DWIDTH 10 0
BBX 10 12 1 0
BITMAP
3000
1800
0400
0000
3CC0
6640
C340
C380
C300
C300
6600
3C00
ENDCHAR
STARTCHAR uni1EE0
ENCODING 7904
SWIDTH 762 0
DWIDTH 13 0
BBX 12 15 1 0
BITMAP
0640
0980
0000
0E30
3190
60D0
4060
C060
C060
C060
C060
4040
60C0
3180
0E00
ENDCHAR
STARTCHAR uni1EE1
ENCODING 7905
SWIDTH 577 0
DWIDTH 10 0
BBX 10 11 1 0
BITMAP
1900
2600
0000
3CC0
6640
C340
C380
C300
C300
6600
3C00
ENDCHAR
STARTCHAR uni1EE2
ENCODING 7906
SWIDTH 762 0
DWIDTH 13 0
BBX 12 15 1 -3
BITMAP
0E30
3190
60D0
4060
C060
C060
C060
C060
4040
60C0
3180
0E00
0000
0600
0600
ENDCHAR
STARTCHAR uni1EE3
ENCODING 7907
SWIDTH 577 0
DWIDTH 10 0
BBX 10 11 1 -3
BITMAP
3CC0
6640
C340
C380
C300
C300
6600
3C00
0000
1800
1800
ENDCHAR
STARTCHAR uni1EE4
ENCODING 7908
SWIDTH 791 0
DWIDTH 13 0
BBX 11 15 1 -3
BITMAP
F1E0
60C0
60C0
60C0
60C0
60C0
60C0
60C0
60C0
2080
3180
0E00
0000
0600
0600
ENDCHAR
STARTCHAR uni1EE5
ENCODING 7909
SWIDTH 606 0
DWIDTH 10 0
BBX 10 11 0 -3
BITMAP
6180
E380
6180
6180
6180
6180
6380
3DC0
0000
0C00
0C00
ENDCHAR
STARTCHAR uni1EE8
ENCODING 7912
SWIDTH 791 0
DWIDTH 13 0
BBX 12 16 1 0
BITMAP
0180
0300
0400
0000
F1F0
60D0
60D0
60E0
60C0
60C0
60C0
60C0
60C0
2080
3180
0E00
ENDCHAR
STARTCHAR uni1EE9
ENCODING 7913
SWIDTH 606 0
DWIDTH 10 0
BBX 11 12 0 0
BITMAP
0180
0300
0400
0000
61E0
E3A0
61A0
61C0
6180
6180
6380
3DC0
ENDCHAR
STARTCHAR uni1EEA
ENCODING 7914
SWIDTH 791 0
DWIDTH 13 0
BBX 12 16 1 0
BITMAP
1800
0C00
0200
0000
F1F0
60D0
60D0
60E0
60C0
60C0
60C0
60C0
60C0
2080
3180
0E00
ENDCHAR
STARTCHAR uni1EEB
ENCODING 7915
SWIDTH 606 0
DWIDTH 10 0
BBX 11 12 0 0
BITMAP
1800
0C00
0200
0000
61E0
E3A0
61A0
61C0
6180
6180
6380
3DC0
ENDCHAR
STARTCHAR uni1EEE
ENCODING 7918
SWIDTH 791 0
DWIDTH 13 0
BBX 12 15 1 0
BITMAP
0C80
1300
0000
F1F0
60D0
60D0
60E0
60C0
60C0
60C0
60C0
60C0
2080
3180
0E00
ENDCHAR
STARTCHAR uni1EEF
ENCODING 7919
SWIDTH 606 0
DWIDTH 10 0
BBX 11 11 0 0
BITMAP
0C80
1300
0000
61E0
E3A0
61A0
61C0
6180
6180
6380
3DC0
ENDCHAR
STARTCHAR uni1EF0
ENCODING 7920
SWIDTH 791 0
DWIDTH 13 0
BBX 12 15 1 -3
BITMAP
F1F0
60D0
60D0
60E0
60C0
60C0
60C0
60C0
60C0
2080
3180
0E00
0000
0600
0600
ENDCHAR
STARTCHAR uni1EF1
ENCODING 7921
SWIDTH 606 0
DWIDTH 10 0
BBX 11 11 0 -3
BITMAP
61E0
E3A0
61A0
61C0
6180
6180
6380
3DC0
0000
0600
0600
ENDCHAR
STARTCHAR Ygrave
ENCODING 7922
SWIDTH 588 0
DWIDTH 10 0
BBX 10 16 0 0
BITMAP
3000
1800
0400
0000
F1C0
6080
2100
3100
1A00
1A00
0C00
0C00
0C00
0C00
0C00
1F00
ENDCHAR
STARTCHAR ygrave
ENCODING 7923
SWIDTH 506 0
DWIDTH 8 0
BBX 9 16 0 -4
BITMAP
6000
3000
0800
0000
F380
6100
2100
3200
3200
1A00
1C00
0C00
0800
0800
5000
7000
ENDCHAR
STARTCHAR uni1EF4
ENCODING 7924
SWIDTH 588 0
DWIDTH 10 0
BBX 10 15 0 -3
BITMAP
F1C0
6080
2100
3100
1A00
1A00
0C00
0C00
0C00
0C00
0C00
1F00
0000
0C00
0C00
ENDCHAR
STARTCHAR uni1EF5
ENCODING 7925
SWIDTH 506 0
DWIDTH 8 0
BBX 9 15 0 -7
BITMAP
F380
6100
2100
3200
3200
1A00
1C00
0C00
0800
0800
5000
7000
0000
1800
1800
ENDCHAR
STARTCHAR uni1EF8
ENCODING 7928
SWIDTH 588 0
DWIDTH 10 0
BBX 10 15 0 0
BITMAP
1900
2600
0000
F1C0
6080
2100
3100
1A00
1A00
0C00
0C00
0C00
0C00
0C00
1F00
ENDCHAR
STARTCHAR uni1EF9
ENCODING 7929
SWIDTH 506 0
DWIDTH 8 0
BBX 9 15 0 -4
BITMAP
3200
4C00
0000
F380
6100
2100
3200
3200
1A00
1C00
0C00
0800
0800
5000
7000
ENDCHAR
STARTCHAR uni2000
ENCODING 8192
SWIDTH 500 0
DWIDTH 8 0
BBX 1 1 0 0
BITMAP
00
ENDCHAR
STARTCHAR uni2001
ENCODING 8193
SWIDTH 1000 0
DWIDTH 17 0
BBX 1 1 0 0
BITMAP
00
ENDCHAR
STARTCHAR uni2002
ENCODING 8194
SWIDTH 500 0
DWIDTH 8 0
BBX 1 1 0 0
BITMAP
00
ENDCHAR
STARTCHAR uni2003
ENCODING 8195
SWIDTH 1000 0
DWIDTH 17 0
BBX 1 1 0 0
BITMAP
00
ENDCHAR
STARTCHAR uni2004
ENCODING 8196
SWIDTH 333 0
DWIDTH 6 0
BBX 1 1 0 0
BITMAP
00
ENDCHAR
STARTCHAR uni2005
ENCODING 8197
SWIDTH 250 0
DWIDTH 4 0
BBX 1 1 0 0
BITMAP
00
ENDCHAR
STARTCHAR uni2006
ENCODING 8198
SWIDTH 167 0
DWIDTH 3 0
BBX 1 1 0 0
BITMAP
00
ENDCHAR
STARTCHAR uni2007
ENCODING 8199
SWIDTH 530 0
DWIDTH 9 0
BBX 1 1 0 0
BITMAP
00
ENDCHAR
STARTCHAR uni2008
ENCODING 8200
SWIDTH 265 0
DWIDTH 4 0
BBX 1 1 0 0
BITMAP
00
ENDCHAR
STARTCHAR uni2009
ENCODING 8201
SWIDTH 200 0
DWIDTH 3 0
BBX 1 1 0 0
BITMAP
00
ENDCHAR
STARTCHAR uni200A
ENCODING 8202
SWIDTH 100 0
DWIDTH 2 0
BBX 1 1 0 0
BITMAP
00
ENDCHAR
STARTCHAR uni200B
ENCODING 8203
SWIDTH 0 0
DWIDTH 0 0
BBX 1 1 0 0
BITMAP
00
ENDCHAR
STARTCHAR uni2010
ENCODING 8208
SWIDTH 392 0
DWIDTH 7 0
BBX 4 1 1 4
BITMAP
F0
ENDCHAR
STARTCHAR uni2011
ENCODING 8209
SWIDTH 392 0
DWIDTH 7 0
BBX 4 1 1 4
BITMAP
F0
ENDCHAR
STARTCHAR figuredash
ENCODING 8210
SWIDTH 500 0
DWIDTH 8 0
BBX 8 1 0 4
BITMAP
FF
ENDCHAR
STARTCHAR endash
ENCODING 8211
SWIDTH 500 0
DWIDTH 8 0
BBX 8 1 0 4
BITMAP
FF
ENDCHAR
STARTCHAR emdash
ENCODING 8212
SWIDTH 1000 0
DWIDTH 17 0
BBX 17 1 0 4
BITMAP
FFFF80
ENDCHAR
STARTCHAR afii00208
ENCODING 8213
SWIDTH 1000 0
DWIDTH 17 0
BBX 17 1 0 4
BITMAP
FFFF80
ENDCHAR
STARTCHAR quoteleft
ENCODING 8216
SWIDTH 278 0
DWIDTH 5 0
BBX 2 4 1 8
BITMAP
40
80
80
C0
ENDCHAR
STARTCHAR quoteright
ENCODING 8217
SWIDTH 278 0
DWIDTH 5 0
BBX 2 4 1 8
BITMAP
C0
40
40
80
ENDCHAR
STARTCHAR quotesinglbase
ENCODING 8218
SWIDTH 278 0
DWIDTH 5 0
BBX 2 4 1 -2
BITMAP
C0
40
40
80
ENDCHAR
STARTCHAR quotereversed
ENCODING 8219
SWIDTH 278 0
DWIDTH 5 0
BBX 2 4 1 8
BITMAP
C0
80
80
40
ENDCHAR
STARTCHAR quotedblleft
ENCODING 8220
SWIDTH 458 0
DWIDTH 8 0
BBX 5 4 1 8
BITMAP
48
90
D0
D8
ENDCHAR
STARTCHAR quotedblright
ENCODING 8221
SWIDTH 458 0
DWIDTH 8 0
BBX 5 4 1 8
BITMAP
D8
58
50
90
ENDCHAR
STARTCHAR quotedblbase
ENCODING 8222
SWIDTH 458 0
DWIDTH 8 0
BBX 5 4 1 -2
BITMAP
D8
58
50
90
ENDCHAR
STARTCHAR uni201F
ENCODING 8223
SWIDTH 458 0
DWIDTH 8 0
BBX 5 4 1 8
BITMAP
D8
D0
50
48
ENDCHAR
STARTCHAR dagger
ENCODING 8224
SWIDTH 504 0
DWIDTH 8 0
BBX 8 14 0 -2
BITMAP
18
18
18
10
FF
08
18
18
18
18
18
10
10
10
ENDCHAR
STARTCHAR daggerdbl
ENCODING 8225
SWIDTH 488 0
DWIDTH 8 0
BBX 6 14 1 -2
BITMAP
30
30
30
20
FC
30
30
30
30
FC
10
30
30
30
ENDCHAR
STARTCHAR bullet
ENCODING 8226
SWIDTH 409 0
DWIDTH 7 0
BBX 5 5 1 3
BITMAP
70
F8
F8
F8
70
ENDCHAR
STARTCHAR ellipsis
ENCODING 8230
SWIDTH 1000 0
DWIDTH 17 0
BBX 14 2 2 0
BITMAP
C30C
C30C
ENDCHAR
STARTCHAR perthousand
ENCODING 8240
SWIDTH 1208 0
DWIDTH 20 0
BBX 18 12 1 0
BITMAP
004000
7F8000
888000
890000
890000
8A0000
74E380
051440
091440
091440
111440
20E380
ENDCHAR
STARTCHAR guilsinglleft
ENCODING 8249
SWIDTH 257 0
DWIDTH 4 0
BBX 3 7 1 0
BITMAP
20
40
40
C0
40
40
20
ENDCHAR
STARTCHAR guilsinglright
ENCODING 8250
SWIDTH 257 0
DWIDTH 4 0
BBX 3 7 1 0
BITMAP
80
40
40
60
40
40
80
ENDCHAR
STARTCHAR fraction
ENCODING 8260
SWIDTH 150 0
DWIDTH 2 0
BBX 8 12 -3 0
BITMAP
01
01
02
06
04
08
08
10
20
20
40
80
ENDCHAR
STARTCHAR oneinferior
ENCODING 8321
SWIDTH 380 0
DWIDTH 6 0
BBX 3 6 2 -4
BITMAP
C0
40
40
40
40
E0
ENDCHAR
STARTCHAR twoinferior
ENCODING 8322
SWIDTH 380 0
DWIDTH 6 0
BBX 5 6 1 -4
BITMAP
70
98
18
20
C0
F8
ENDCHAR
STARTCHAR threeinferior
ENCODING 8323
SWIDTH 380 0
DWIDTH 6 0
BBX 5 6 1 -4
BITMAP
70
98
18
60
18
F0
ENDCHAR
STARTCHAR uni20A5
ENCODING 8357
SWIDTH 923 0
DWIDTH 15 0
BBX 14 12 1 -2
BITMAP
0040
0080
6EF0
F398
6398
6318
6318
6318
6318
F7BC
0200
0400
ENDCHAR
STARTCHAR uni20A6
ENCODING 8358
SWIDTH 780 0
DWIDTH 13 0
BBX 11 12 1 0
BITMAP
E1E0
7040
7040
5840
7FC0
4C40
4640
7FC0
4340
41C0
40C0
F0C0
ENDCHAR
STARTCHAR uni20A9
ENCODING 8361
SWIDTH 940 0
DWIDTH 16 0
BBX 16 12 0 0
BITMAP
F00F
6082
2186
21C4
3FF4
3244
124C
1FF8
1A28
1C28
0C38
0C10
ENDCHAR
STARTCHAR Euro
ENCODING 8364
SWIDTH 684 0
DWIDTH 11 0
BBX 12 12 -1 0
BITMAP
03E0
0C30
1810
1000
FF00
3000
3000
FF00
3010
1810
0C30
03C0
ENDCHAR
STARTCHAR uni20AD
ENCODING 8365
SWIDTH 658 0
DWIDTH 11 0
BBX 10 12 1 0
BITMAP
F3C0
6100
6200
6400
6800
FFC0
7800
6C00
6600
6300
6180
F0C0
ENDCHAR
STARTCHAR uni2103
ENCODING 8451
SWIDTH 1017 0
DWIDTH 17 0
BBX 16 12 1 0
BITMAP
003E
60C3
9181
9100
6300
0300
0300
0300
0301
0181
00C3
003C
ENDCHAR
STARTCHAR uni2109
ENCODING 8457
SWIDTH 913 0
DWIDTH 16 0
BBX 14 12 1 0
BITMAP
03FC
6184
9184
9180
6180
0188
01F8
0188
0180
0180
0180
03C0
ENDCHAR
STARTCHAR trademark
ENCODING 8482
SWIDTH 1100 0
DWIDTH 18 0
BBX 17 8 0 4
BITMAP
FEC180
9AE300
18A500
18A500
189500
189900
189900
39D380
ENDCHAR
STARTCHAR uni212A
ENCODING 8490
SWIDTH 658 0
DWIDTH 11 0
BBX 10 12 1 0
BITMAP
F3C0
6100
6200
6400
6800
7800
7800
6C00
6600
6300
6180
F0C0
ENDCHAR
STARTCHAR uni212B
ENCODING 8491
SWIDTH 627 0
DWIDTH 10 0
BBX 11 15 0 0
BITMAP
0C00
1200
1200
0C00
0C00
1600
1600
1200
2300
3F00
2180
2180
4080
40C0
E1E0
ENDCHAR
STARTCHAR uni2132
ENCODING 8498
SWIDTH 580 0
DWIDTH 10 0
BBX 8 12 1 0
BITMAP
0F
06
06
06
46
7E
46
06
06
86
86
FF
ENDCHAR
STARTCHAR universal
ENCODING 8704
SWIDTH 635 0
DWIDTH 11 0
BBX 11 12 0 0
BITMAP
F1E0
40C0
2080
2180
2180
1F00
1100
1300
0A00
0E00
0E00
0400
ENDCHAR
STARTCHAR existential
ENCODING 8707
SWIDTH 606 0
DWIDTH 10 0
BBX 9 12 1 0
BITMAP
7F80
6300
4300
0300
2300
2300
3F00
2300
0300
8300
4300
7F80
ENDCHAR
STARTCHAR uni2204
ENCODING 8708
SWIDTH 606 0
DWIDTH 10 0
BBX 9 12 1 0
BITMAP
7F80
6700
4700
0700
2F00
2B00
3F00
3B00
1300
9300
5300
7F80
ENDCHAR
STARTCHAR minus
ENCODING 8722
SWIDTH 570 0
DWIDTH 9 0
BBX 8 1 1 4
BITMAP
FF
ENDCHAR
STARTCHAR fraction
ENCODING 8725
SWIDTH 150 0
DWIDTH 2 0
BBX 8 12 -3 0
BITMAP
01
01
02
06
04
08
08
10
20
20
40
80
ENDCHAR
STARTCHAR periodcentered
ENCODING 8729
SWIDTH 265 0
DWIDTH 4 0
BBX 2 2 1 3
BITMAP
C0
C0
ENDCHAR
STARTCHAR uni2236
ENCODING 8758
SWIDTH 265 0
DWIDTH 4 0
BBX 2 8 1 0
BITMAP
C0
C0
00
00
00
00
C0
C0
ENDCHAR
STARTCHAR uni2259
ENCODING 8793
SWIDTH 570 0
DWIDTH 9 0
BBX 8 8 1 2
BITMAP
08
14
22
00
FF
00
00
FF
ENDCHAR
STARTCHAR uni225A
ENCODING 8794
SWIDTH 570 0
DWIDTH 9 0
BBX 8 8 1 2
BITMAP
22
1C
08
00
FF
00
00
FF
ENDCHAR
STARTCHAR notequal
ENCODING 8800
SWIDTH 570 0
DWIDTH 9 0
BBX 8 12 1 -2
BITMAP
02
04
04
04
FF
08
08
FF
10
10
10
20
ENDCHAR
STARTCHAR equivalence
ENCODING 8801
SWIDTH 570 0
DWIDTH 9 0
BBX 8 5 0 1
BITMAP
FF
00
FF
00
FF
ENDCHAR
STARTCHAR uni2262
ENCODING 8802
SWIDTH 570 0
DWIDTH 9 0
BBX 8 12 0 -2
BITMAP
02
04
04
04
FF
08
FF
18
FF
10
10
20
ENDCHAR
STARTCHAR lessequal
ENCODING 8804
SWIDTH 570 0
DWIDTH 9 0
BBX 8 11 1 -3
BITMAP
01
07
1C
70
C0
E0
38
06
01
00
FF
ENDCHAR
STARTCHAR greaterequal
ENCODING 8805
SWIDTH 570 0
DWIDTH 9 0
BBX 8 11 1 -3
BITMAP
80
E0
38
0E
03
07
1C
60
80
00
FF
ENDCHAR
STARTCHAR uni226E
ENCODING 8814
SWIDTH 570 0
DWIDTH 9 0
BBX 8 12 1 -2
BITMAP
02
04
05
07
1C
78
C8
F8
38
16
11
20
ENDCHAR
STARTCHAR uni226F
ENCODING 8815
SWIDTH 570 0
DWIDTH 9 0
BBX 8 12 1 -2
BITMAP
02
04
84
E4
3C
0E
0B
1F
1C
70
90
20
ENDCHAR
STARTCHAR uni2270
ENCODING 8816
SWIDTH 570 0
DWIDTH 9 0
BBX 8 12 1 -3
BITMAP
02
05
07
1C
7C
C8
E8
38
16
11
10
FF
ENDCHAR
STARTCHAR uni2271
ENCODING 8817
SWIDTH 570 0
DWIDTH 9 0
BBX 8 12 1 -3
BITMAP
02
84
E4
3C
0E
0B
0F
1C
70
90
10
FF
ENDCHAR
STARTCHAR fi
ENCODING -1
SWIDTH 610 0
DWIDTH 10 0
BBX 9 12 1 0
BITMAP
1C00
2300
6000
6000
FF00
6300
6300
6300
6300
6300
6300
F780
ENDCHAR
STARTCHAR fl
ENCODING -1
SWIDTH 610 0
DWIDTH 10 0
BBX 9 12 1 0
BITMAP
1D00
2300
6300
6300
FB00
6300
6300
6300
6300
6300
6300
F780
ENDCHAR
ENDFONT
